<?xml version="1.0" encoding="utf-8"?>
<!-- Generator: Adobe Illustrator 22.0.1, SVG Export Plug-In . SVG Version: 6.00 Build 0)  -->
<svg version="1.1" id="Capa_1" xmlns="http://www.w3.org/2000/svg" xmlns:xlink="http://www.w3.org/1999/xlink" x="0px" y="0px"
	 viewBox="0 0 110 110" style="enable-background:new 0 0 110 110;" xml:space="preserve">
<path d="M100.9,18.9H76.2V9.2C76.2,4.1,72,0,67,0H43.1c-5,0-9.2,4.1-9.2,9.2v9.7H9.2C4.1,18.9,0,23,0,28v31.4c0,4.5,3.3,8.3,7.5,9
	v32.4c0,5,4.1,9.2,9.2,9.2h76.6c5,0,9.2-4.1,9.2-9.2V68.5c4.3-0.8,7.5-4.5,7.5-9V28C110,23,105.9,18.9,100.9,18.9z M40,9.2
	c0-1.7,1.4-3.1,3.1-3.1H67c1.7,0,3.1,1.4,3.1,3.1v9.7H40V9.2z M96.4,100.9c0,1.7-1.4,3.1-3.1,3.1H16.7c-1.7,0-3.1-1.4-3.1-3.1V68.6
	h9v4.2c0,5,4.1,9.2,9.2,9.2h1.8c5,0,9.2-4.1,9.2-9.2v-4.2h24.5v4.2c0,5,4.1,9.2,9.2,9.2h1.8c5,0,9.2-4.1,9.2-9.2v-4.2h9L96.4,100.9
	L96.4,100.9z M28.8,72.8V58.3c0-1.7,1.4-3.1,3.1-3.1h1.8c1.7,0,3.1,1.4,3.1,3.1v14.4c0,1.7-1.4,3.1-3.1,3.1h-1.8
	C30.2,75.8,28.8,74.5,28.8,72.8z M73.4,72.8V58.3c0-1.7,1.4-3.1,3.1-3.1h1.8c1.7,0,3.1,1.4,3.1,3.1v14.4c0,1.7-1.4,3.1-3.1,3.1h-1.8
	C74.8,75.8,73.4,74.5,73.4,72.8z M103.9,59.5c0,1.7-1.4,3.1-3.1,3.1H87.4v-4.2c0-5-4.1-9.2-9.2-9.2h-1.8c-5,0-9.2,4.1-9.2,9.2v4.2
	H42.8v-4.2c0-5-4.1-9.2-9.2-9.2h-1.8c-5,0-9.2,4.1-9.2,9.2v4.2H9.2c-1.7,0-3.1-1.4-3.1-3.1v-7.6h7.8c1.7,0,3.1-1.4,3.1-3.1
	c0-1.7-1.4-3.1-3.1-3.1H6.1v-7h18.5c1.7,0,3.1-1.4,3.1-3.1c0-1.7-1.4-3.1-3.1-3.1H6.1V28c0-1.7,1.4-3.1,3.1-3.1h91.7
	c1.7,0,3.1,1.4,3.1,3.1L103.9,59.5L103.9,59.5z"/>
</svg>
