<?xml version="1.0" encoding="utf-8"?>
<!-- Generator: Adobe Illustrator 22.0.1, SVG Export Plug-In . SVG Version: 6.00 Build 0)  -->
<svg version="1.1" id="Capa_1" xmlns="http://www.w3.org/2000/svg" xmlns:xlink="http://www.w3.org/1999/xlink" x="0px" y="0px"
	 viewBox="0 0 78 110" style="enable-background:new 0 0 78 110;" xml:space="preserve">
<g>
	<path d="M68.8,33.4h-3.1V23.1c0-5-4.1-9.2-9.2-9.2h-9.9v-0.2C46.6,6.2,40.4,0,32.8,0S19,6.2,19,13.8V14H9.2C4.1,13.9,0,18,0,23.1
		v64.3c0,5,4.1,9.2,9.2,9.2h6.1v4.2c0,5,4.1,9.2,9.2,9.2h31.8c2.5,0,4.8-1,6.5-2.7l12.5-12.4c1.7-1.7,2.7-4,2.7-6.5V42.6
		C78,37.5,73.9,33.4,68.8,33.4z M56.5,20c1.7,0,3.1,1.4,3.1,3.1v10.4h-13V20H56.5z M25.1,13.8c0-4.2,3.4-7.6,7.7-7.6
		s7.7,3.4,7.7,7.6V14H25.1V13.8L25.1,13.8z M9.2,90.4c-1.7,0-3.1-1.4-3.1-3.1V23.1c0-1.7,1.4-3.1,3.1-3.1h31.3v13.4h-6.1v-6.3
		c0-1.7-1.4-3.1-3.1-3.1s-3.1,1.4-3.1,3.1v6.3h-3.6c-5.1,0-9.2,4.1-9.2,9.2v47.9H9.2L9.2,90.4z M34.3,39.5h6.1v1.9
		c0,1.7-1.4,3.1-3.1,3.1c-1.7,0-3.1-1.4-3.1-3.1L34.3,39.5L34.3,39.5z M21.5,100.8V42.6c0-1.7,1.4-3.1,3.1-3.1h3.6v1.9
		c0,5,4.1,9.2,9.2,9.2s9.2-4.1,9.2-9.2v-1.9h22.2c1.7,0,3.1,1.4,3.1,3.1v45.3h-13c-1.7,0-3.1,1.4-3.1,3.1v13H24.6
		C22.9,103.8,21.5,102.4,21.5,100.8z M62,99.5v-5.6h5.6L62,99.5z"/>
	<path d="M30.2,61.9h32.9c1.7,0,3.1-1.4,3.1-3.1s-1.4-3.1-3.1-3.1H30.2c-1.7,0-3.1,1.4-3.1,3.1C27.1,60.5,28.5,61.9,30.2,61.9z"/>
	<path d="M30.2,77.9h32.9c1.7,0,3.1-1.4,3.1-3.1s-1.4-3.1-3.1-3.1H30.2c-1.7,0-3.1,1.4-3.1,3.1S28.5,77.9,30.2,77.9z"/>
	<path d="M46.6,87.8H30.2c-1.7,0-3.1,1.4-3.1,3.1c0,1.7,1.4,3.1,3.1,3.1h16.4c1.7,0,3.1-1.4,3.1-3.1C49.7,89.2,48.3,87.8,46.6,87.8z
		"/>
</g>
</svg>
