<?xml version="1.0" encoding="utf-8"?>
<!-- Generator: Adobe Illustrator 22.0.1, SVG Export Plug-In . SVG Version: 6.00 Build 0)  -->
<svg version="1.1" id="Capa_1" xmlns="http://www.w3.org/2000/svg" xmlns:xlink="http://www.w3.org/1999/xlink" x="0px" y="0px"
	 viewBox="0 0 110 110" style="enable-background:new 0 0 110 110;" xml:space="preserve">
<g>
	<path d="M48.4,58.4V44.5c0-4.6-2.6-8.7-6.7-10.6c-5.5-2.5-11.4-3.7-17.5-3.7s-11.9,1.3-17.5,3.7C2.6,35.8,0,39.9,0,44.5v13.9
		c0,1.7,1.4,3.1,3.1,3.1h42.2C47,61.5,48.4,60.1,48.4,58.4z M42.2,55.4H6.1V44.5c0-2.2,1.2-4.2,3.1-5c4.7-2.1,9.7-3.2,14.9-3.2
		s10.2,1.1,14.9,3.2c1.9,0.9,3.1,2.8,3.1,5v10.9H42.2z"/>
	<path d="M24.2,26.3c7.3,0,13.1-5.9,13.1-13.1S31.4,0,24.2,0S11,5.9,11,13.1S16.9,26.3,24.2,26.3z M24.2,6.1c3.9,0,7,3.2,7,7
		s-3.2,7-7,7s-7-3.2-7-7S20.3,6.1,24.2,6.1z"/>
	<path d="M103.3,82.4c-5.5-2.5-11.4-3.7-17.5-3.7S73.9,80,68.3,82.4c-4.1,1.8-6.7,6-6.7,10.6v13.9c0,1.7,1.4,3.1,3.1,3.1h42.2
		c1.7,0,3.1-1.4,3.1-3.1V93C110,88.4,107.4,84.3,103.3,82.4z M103.9,103.9H67.8V93c0-2.2,1.2-4.2,3.1-5c4.7-2.1,9.7-3.2,14.9-3.2
		S96,85.9,100.7,88c1.9,0.9,3.1,2.8,3.1,5L103.9,103.9L103.9,103.9z"/>
	<path d="M85.9,48.5c-7.3,0-13.1,5.9-13.1,13.1s5.9,13.1,13.1,13.1S99,68.9,99,61.6S93.1,48.5,85.9,48.5z M85.9,68.7
		c-3.9,0-7-3.2-7-7s3.2-7,7-7s7,3.2,7,7C92.9,65.5,89.7,68.7,85.9,68.7z"/>
	<path d="M82.9,33.2L83,34l-3.4-2.4c-1.4-1-3.3-0.6-4.3,0.7c-1,1.4-0.6,3.3,0.7,4.3l9.4,6.7c1.6,1,3.3,0.6,4.3-0.7l6.7-9.4
		c1-1.4,0.6-3.3-0.7-4.3c-1.4-1-3.3-0.6-4.3,0.7L89,33l-0.1-0.8c-2.3-13.3-15-22.3-28.4-20.1c-1.7,0.3-2.8,1.9-2.5,3.5
		c0.3,1.7,1.9,2.8,3.5,2.5C71.6,16.4,81.1,23.2,82.9,33.2z"/>
	<path d="M48.5,91.8c-10,1.7-19.6-5-21.3-15L27.1,76l3.4,2.4c1.4,1,3.3,0.6,4.3-0.7c1-1.4,0.6-3.3-0.7-4.3l-9.4-6.7
		c-1.6-1-3.3-0.6-4.3,0.7l-6.7,9.4c-1,1.4-0.6,3.3,0.7,4.3s3.3,0.6,4.3-0.7L21,77l0.1,0.8c2.3,13.3,15,22.3,28.4,20
		c1.7-0.3,2.8-1.9,2.5-3.5C51.7,92.7,50.1,91.6,48.5,91.8z"/>
</g>
</svg>
