<?xml version="1.0" encoding="utf-8"?>
<!-- Generator: Adobe Illustrator 22.0.1, SVG Export Plug-In . SVG Version: 6.00 Build 0)  -->
<svg version="1.1" id="Capa_1" xmlns="http://www.w3.org/2000/svg" xmlns:xlink="http://www.w3.org/1999/xlink" x="0px" y="0px"
	 viewBox="0 0 110 110" style="enable-background:new 0 0 110 110;" xml:space="preserve">
<path d="M66.6,110H13.8C6.1,110,0,104,0,96.4v-68c0-0.8,0.1-1.7,0.5-2.4c0.4-0.8,0.8-1.4,1.4-2.1L25.5,1.7c0.5-0.5,1.3-1,2-1.3
	S29,0,29.8,0h45.3c7.7,0,13.8,6,13.8,13.6v41.6c-0.9-0.3-2.1-0.3-3.3-0.3c-1,0-2.1,0-3.1,0.1V13.5c0-4-3.3-7.2-7.3-7.2H31.8v10.4
	c0,7.4-6.3,13.6-13.8,13.6H6.4v66c0,4,3.3,7.2,7.3,7.2h46.5C62,106,64.1,108.2,66.6,110z M103.9,101.5l-0.3,0.3
	c0.9,1.9,2.5,4.4,5,5.5c0.8,0.4,0.7,1.7-0.3,1.8c-2.7,0.4-6.7,0-10.3-2.8l0,0c-9.3,5.4-21.5,4.1-29.5-3.7c-9.5-9.4-9.5-24.4,0-33.8
	s24.8-9.4,34.3,0C112,77.8,112.4,92.2,103.9,101.5z M82.8,74.8c0,2.2,1.7,4,3.9,4c2.1,0,3.9-1.8,3.9-3.9c0-2.2-1.7-4-3.9-4
	C84.5,71,82.8,72.6,82.8,74.8z M91.4,96.4c-0.4,0.1-0.8,0.4-1.2,0.5c-0.5,0.1-0.9,0.4-1.4,0.4c-0.7,0.1-1-0.3-1.2-0.9
	c-0.1-0.4-0.1-0.9-0.1-1.3c0.1-0.9,0.3-1.8,0.5-2.8c0.5-2.8,1-5.5,1.6-8.3c0.1-0.8,0.3-1.5,0.3-2.3c0-0.9-0.5-1.3-1.4-1.3
	c-1.3,0-2.6,0-3.9,0c-1.2,0-2.5,0-3.7,0c-0.3,0-0.7,0-0.9,0.1c-0.5,0.1-0.8,0.4-0.9,0.8c0,0.4,0.1,0.8,0.7,1
	c0.4,0.1,0.9,0.1,1.3,0.3c1,0.1,1.3,0.5,1.3,1.5c0,0.1,0,0.3,0,0.5c-0.4,2.4-0.9,4.9-1.3,7.3c-0.3,1.4-0.4,2.8-0.7,4.2
	c-0.3,2.1,1.7,4,3.3,4.2c0.9,0.1,2,0.1,2.9,0.1c2.1,0,3.8-0.9,5.2-2.3c0.3-0.3,0.5-0.6,0.5-0.9C92.4,96.7,92,96.3,91.4,96.4z"/>
</svg>
