<?xml version="1.0" encoding="utf-8"?>
<!-- Generator: Adobe Illustrator 22.0.1, SVG Export Plug-In . SVG Version: 6.00 Build 0)  -->
<svg version="1.1" id="Capa_1" xmlns="http://www.w3.org/2000/svg" xmlns:xlink="http://www.w3.org/1999/xlink" x="0px" y="0px"
	 viewBox="0 0 110 90" style="enable-background:new 0 0 110 90;" xml:space="preserve">
<g>
	<path d="M106.9,62.4h-5.3l0,0V9.3c0-5.1-4.1-9.3-9.2-9.3h-75c-5.1,0-9.2,4.2-9.2,9.3v53.1H3.1c-1.7,0-3.1,1.4-3.1,3.1v8.1
		C0,82.7,7.2,90,16,90h78c8.9,0,16-7.3,16-16.4v-8.1C110,63.8,108.6,62.4,106.9,62.4z M14.5,9.3c0-1.7,1.4-3.1,3.1-3.1h74.9
		c1.7,0,3.1,1.4,3.1,3.1v53.1h-6.1l0,0V15.5c0-1.7-1.4-3.1-3.1-3.1H23.6c-1.7,0-3.1,1.4-3.1,3.1v46.9h-6.1V9.3H14.5z M83.3,18.6
		L83.3,18.6v43.8H72.5c-4,0-8,2.3-9.3,6.2c-0.5,1.3-1.7,2.2-3.1,2.2H49.8c-1.3,0-2.4-0.8-2.9-2c-1.3-3.8-4.9-6.3-8.8-6.3H26.7V18.6
		H83.3z M103.9,68.6v5c0,5.6-4.5,10.2-9.9,10.2H16c-5.5,0-9.9-4.6-9.9-10.2v-5h32.1c1.3,0,2.4,0.8,2.9,2c1.3,3.8,4.9,6.3,8.8,6.3
		h9.6c4,0,8-2.3,9.3-6.2c0.5-1.3,1.7-2.2,3.1-2.2L103.9,68.6L103.9,68.6z"/>
	<polygon points="36.7,49.3 40.4,49.3 40.4,31.9 33.4,31.9 33.4,35.2 36.7,35.2 	"/>
	<path d="M52.8,34.9c1.1,0,2.1,0.9,2,2c0,0.6-0.2,1.2-0.6,1.8S47,46.5,47,46.5v2.9h12.1v-3.5h-6.8c0,0,5.1-5.6,5.6-6.4
		c0.5-0.8,0.7-1.7,0.7-2.6c0-3.3-2.8-5.3-5.6-5.3c-2.7-0.2-4.7,1.3-6.3,3.8l3.1,1.8C50.7,35.6,51.8,34.9,52.8,34.9z"/>
	<path d="M70.2,46.1c-1.3,0-2.7-0.6-4.3-1.7l-1.6,3.1c1.9,1.4,3.9,2,5.8,2c3.9,0.2,6.7-2.5,6.5-5.9c-0.1-3.1-2.2-4.8-4.3-5l3.5-4.1
		v-2.7H65.3v3.3h5.4L67.4,39v3c2.4-0.9,5.3-0.5,5.5,1.9C72.9,45.3,71.7,46.1,70.2,46.1z"/>
</g>
</svg>
