<?xml version="1.0" encoding="utf-8"?>
<!-- Generator: Adobe Illustrator 22.0.1, SVG Export Plug-In . SVG Version: 6.00 Build 0)  -->
<svg version="1.1" id="Capa_1" xmlns="http://www.w3.org/2000/svg" xmlns:xlink="http://www.w3.org/1999/xlink" x="0px" y="0px"
	 viewBox="0 0 110 110" style="enable-background:new 0 0 110 110;" xml:space="preserve">
<g>
	<path d="M57.6,36.5c-1.2-1.2-3.1-1.2-4.3,0l-6,6l-6-6c-1.1-1.1-3.2-1.1-4.3,0l-6,6l-6-6c-1.1-1.1-3.2-1.1-4.3,0l-8.2,8.2
		c-1.2,1.2-1.2,3.1,0,4.3c1.2,1.1,3.1,1.3,4.3,0l6-6l6,6c1.1,1.1,3.2,1.1,4.3,0l6-6l6,6c1.6,1.3,3,1.1,4.3,0l8.2-8.2
		C58.8,39.6,58.8,37.7,57.6,36.5z"/>
	<path d="M96.3,17.7H14.6c-1.7,0-3.1-1.4-3.1-3.1c0-1.7,1.4-3.1,3.1-3.1h81.7c1.7,0,3.1,1.4,3.1,3.1C99.4,16.3,98,17.7,96.3,17.7z"
		/>
	<path d="M95.5,29.3H14.6c-1.7,0-3.1-1.4-3.1-3.1c0-1.7,1.4-3.1,3.1-3.1h80.9c1.7,0,3.1,1.4,3.1,3.1C98.6,27.9,97.2,29.3,95.5,29.3z
		"/>
	<path d="M110,52.6V8.9c0-4.9-4-8.9-8.8-8.9H8.8C4,0,0,4,0,8.9v43.8c0,4.9,4,8.8,8.8,8.8h62.8l18.2,43.2c1.6,3.6,6.1,6.8,11.6,4.7
		l3-1.3c4.5-1.9,6.6-7.1,4.7-11.6l-14.7-35h6.9C106,61.5,110,57.5,110,52.6z M103.4,98.7c0.6,1.4-0.1,3-1.5,3.6l-3,1.3
		c-1.4,0.6-3-0.1-3.6-1.5l-1.1-2.5l8-3.4L103.4,98.7z M100,90.6L92,94L78.3,61.7l8-3.4L100,90.6z M77.7,55.4l0.3-5.5l4.2,3.6
		L77.7,55.4z M91.7,55.4l-0.9-2.2c-0.1-0.3-0.4-0.7-0.8-1.1L77.4,41.3c-1.9-1.5-4.8-0.5-5,2.1l-0.8,12H8.8c-1.5,0-2.7-1.2-2.7-2.7
		V8.9c0-1.5,1.2-2.7,2.7-2.7h92.4c1.5,0,2.7,1.2,2.7,2.7v43.8c0,1.5-1.2,2.7-2.7,2.7C101.2,55.4,91.7,55.4,91.7,55.4z"/>
</g>
</svg>
