<svg id="catnova" xmlns="http://www.w3.org/2000/svg" viewBox="0 0 285.02 49.77"><title>logoCatnovaHorizontal</title><path id="center" d="M45,36.14a10,10,0,1,0-9.95,10A10,10,0,0,0,45,36.14Z" transform="translate(-10.17 -11.25)"/><g id="petal-b-r"><path id="head" d="M55,61a5,5,0,1,0-5-5A5,5,0,0,0,55,61Z" transform="translate(-10.17 -11.25)"/><path id="body" d="M48.54,37.63a13.57,13.57,0,0,1-12,12,10.49,10.49,0,0,0,10.41,8.91,8.11,8.11,0,0,0,1,0A7.36,7.36,0,0,1,47.5,56,7.44,7.44,0,0,1,55,48.58a7.36,7.36,0,0,1,2.45.4,7.79,7.79,0,0,0,0-1A10.48,10.48,0,0,0,48.54,37.63Z" transform="translate(-10.17 -11.25)"/></g><g id="petal-b-l"><path id="head-2" data-name="head" d="M10.17,56a5,5,0,1,0,5-5A5,5,0,0,0,10.17,56Z" transform="translate(-10.17 -11.25)"/><path id="body-2" data-name="body" d="M33.56,49.62a13.57,13.57,0,0,1-12-12A10.54,10.54,0,0,0,12.66,48a6.5,6.5,0,0,0,.05,1,7.3,7.3,0,0,1,2.44-.4A7.44,7.44,0,0,1,22.61,56a7.36,7.36,0,0,1-.4,2.45,7.79,7.79,0,0,0,1,0A10.47,10.47,0,0,0,33.56,49.62Z" transform="translate(-10.17 -11.25)"/></g><g id="petal-t-r"><path id="head-3" data-name="head" d="M59.94,16.23a5,5,0,1,0-5,5A5,5,0,0,0,59.94,16.23Z" transform="translate(-10.17 -11.25)"/><path id="body-3" data-name="body" d="M36.55,22.65a13.58,13.58,0,0,1,12,12,10.49,10.49,0,0,0,8.91-10.41,8.19,8.19,0,0,0,0-1A7.37,7.37,0,0,1,55,23.7a7.44,7.44,0,0,1-7.46-7.47,7.3,7.3,0,0,1,.4-2.44,6.25,6.25,0,0,0-1,0A10.48,10.48,0,0,0,36.55,22.65Z" transform="translate(-10.17 -11.25)"/></g><g id="petal-t-l"><path id="head-4" data-name="head" d="M15.15,11.25a5,5,0,1,0,5,5A5,5,0,0,0,15.15,11.25Z" transform="translate(-10.17 -11.25)"/><path id="body-4" data-name="body" d="M21.57,34.64a13.58,13.58,0,0,1,12-12A10.53,10.53,0,0,0,23.2,13.74a6.57,6.57,0,0,0-1,0,7.3,7.3,0,0,1,.4,2.44,7.44,7.44,0,0,1-7.46,7.47,7.31,7.31,0,0,1-2.44-.41,6.25,6.25,0,0,0-.05,1A10.48,10.48,0,0,0,21.57,34.64Z" transform="translate(-10.17 -11.25)"/></g><path d="M104.12,51.51A15,15,0,0,1,98,57a20.76,20.76,0,0,1-9.28,1.95,18.26,18.26,0,0,1-9.85-2.6,16.69,16.69,0,0,1-6.37-7.42,27.12,27.12,0,0,1-2.2-11.36V34.81a26.43,26.43,0,0,1,2.28-11.35A17.19,17.19,0,0,1,79,16a18,18,0,0,1,9.73-2.61,20.28,20.28,0,0,1,9.34,2,14.8,14.8,0,0,1,6,5.55,18.9,18.9,0,0,1,2.57,8.2H97.14c-.19-2.68-.92-4.67-2.21-6s-3.36-2-6.22-2a7.39,7.39,0,0,0-6.63,3.29q-2.14,3.27-2.15,10.27v2.77a27.56,27.56,0,0,0,.88,7.68,8.38,8.38,0,0,0,2.79,4.42,8.13,8.13,0,0,0,5.08,1.46q4.11,0,6.13-1.87c1.35-1.24,2.11-3.17,2.3-5.76h9.51A17,17,0,0,1,104.12,51.51Z" transform="translate(-10.17 -11.25)"/><path d="M139,54.7a11.9,11.9,0,0,0,1,3.07v.52h-9.21a9.53,9.53,0,0,1-.88-2.95,10.47,10.47,0,0,1-8.24,3.56A12.49,12.49,0,0,1,116,57.62a10.11,10.11,0,0,1-4-3.53A9.08,9.08,0,0,1,110.49,49a9.31,9.31,0,0,1,3.86-8q3.86-2.8,11.37-2.81h3.74V36.33a5,5,0,0,0-1.15-3.54,4.48,4.48,0,0,0-3.47-1.26,4.91,4.91,0,0,0-3.27,1,3.47,3.47,0,0,0-1.17,2.81h-9.18A8.89,8.89,0,0,1,113,30a11.79,11.79,0,0,1,5-3.8,18.45,18.45,0,0,1,7.41-1.4,17.22,17.22,0,0,1,6.9,1.31A10.39,10.39,0,0,1,136.94,30a11.41,11.41,0,0,1,1.7,6.39V50.17A24.89,24.89,0,0,0,139,54.7Zm-11.74-3.63A5.56,5.56,0,0,0,129.46,49v-5.5H126a7,7,0,0,0-4.75,1.38,4.59,4.59,0,0,0-1.57,3.61A3.2,3.2,0,0,0,120.75,51a4.33,4.33,0,0,0,3,1A7,7,0,0,0,127.24,51.07Z" transform="translate(-10.17 -11.25)"/><path d="M162,51.14v6.91a16.18,16.18,0,0,1-5.42.85q-9.66,0-9.67-9.85v-17h-4.65V25.39h4.65V17.24h9.19v8.15h5.53v6.69h-5.53V48a3.58,3.58,0,0,0,.76,2.66,3.72,3.72,0,0,0,2.58.72A12.58,12.58,0,0,0,162,51.14Z" transform="translate(-10.17 -11.25)"/><path d="M192.13,27.74q2.72,3,2.71,9.69V58.29h-9.18V37.4c0-1.95-.42-3.3-1.25-4.06a5.58,5.58,0,0,0-3.86-1.14,6.11,6.11,0,0,0-3.12.76,5.84,5.84,0,0,0-2.14,2.16V58.29H166.1V25.39h8.61l.3,3.8a11.6,11.6,0,0,1,4.14-3.29,12.37,12.37,0,0,1,5.32-1.12C187.77,24.78,190.33,25.77,192.13,27.74Z" transform="translate(-10.17 -11.25)"/><path d="M201.76,32.9a13.89,13.89,0,0,1,5.36-6,17.59,17.59,0,0,1,16.89,0,13.89,13.89,0,0,1,5.39,6,19.64,19.64,0,0,1,1.84,8.63v.64a19.53,19.53,0,0,1-1.84,8.62,14,14,0,0,1-5.37,6,17.59,17.59,0,0,1-16.89,0,13.9,13.9,0,0,1-5.38-6,19.39,19.39,0,0,1-1.84-8.62v-.64A19.5,19.5,0,0,1,201.76,32.9ZM210.65,49a5.38,5.38,0,0,0,5,2.54A5.29,5.29,0,0,0,220.5,49a12.89,12.89,0,0,0,1.55-6.78v-.64a13,13,0,0,0-1.55-6.78,6,6,0,0,0-9.85,0,13.11,13.11,0,0,0-1.55,6.76v.64A13,13,0,0,0,210.65,49Z" transform="translate(-10.17 -11.25)"/><path d="M263.85,25.39l-11,32.9h-8.9l-11-32.9h9.64l5.86,21.74,5.84-21.74Z" transform="translate(-10.17 -11.25)"/><path d="M294.19,54.7a11.9,11.9,0,0,0,1,3.07v.52H286a9.53,9.53,0,0,1-.88-2.95,10.47,10.47,0,0,1-8.25,3.56,12.48,12.48,0,0,1-5.65-1.28,10.11,10.11,0,0,1-4-3.53A9.08,9.08,0,0,1,265.7,49a9.31,9.31,0,0,1,3.86-8q3.85-2.8,11.37-2.81h3.74V36.33a5.09,5.09,0,0,0-1.15-3.54,4.5,4.5,0,0,0-3.47-1.26,4.91,4.91,0,0,0-3.27,1,3.47,3.47,0,0,0-1.17,2.81h-9.19A8.9,8.9,0,0,1,268.17,30a11.79,11.79,0,0,1,5-3.8,18.45,18.45,0,0,1,7.41-1.4,17.22,17.22,0,0,1,6.9,1.31A10.44,10.44,0,0,1,292.15,30a11.41,11.41,0,0,1,1.7,6.39V50.17A24.89,24.89,0,0,0,294.19,54.7Zm-11.74-3.63A5.69,5.69,0,0,0,284.67,49v-5.5h-3.5a7,7,0,0,0-4.75,1.38,4.59,4.59,0,0,0-1.57,3.61A3.2,3.2,0,0,0,276,51a4.33,4.33,0,0,0,3,1A7,7,0,0,0,282.45,51.07Z" transform="translate(-10.17 -11.25)"/></svg>