<?xml version="1.0" encoding="utf-8"?>
<!-- Generator: Adobe Illustrator 22.0.1, SVG Export Plug-In . SVG Version: 6.00 Build 0)  -->
<svg version="1.1" id="Capa_1" xmlns="http://www.w3.org/2000/svg" xmlns:xlink="http://www.w3.org/1999/xlink" x="0px" y="0px"
	 viewBox="0 0 110 110" style="enable-background:new 0 0 110 110;" xml:space="preserve">
<style type="text/css">
	.st0{fill:url(#SVGID_1_);}
	.st1{fill:url(#SVGID_2_);}
</style>
<g>
	<linearGradient id="SVGID_1_" gradientUnits="userSpaceOnUse" x1="55" y1="107.3677" x2="55" y2="0.649">
		<stop  offset="0" style="stop-color:#2F5CAC"/>
		<stop  offset="1" style="stop-color:#3B6FCC"/>
	</linearGradient>
	<path class="st0" d="M96,0H37.9C30.2,0,24,6.3,24,14.1v18.5H12.3C5.5,32.7,0,38.2,0,45.1v36.3c0,6.9,5.5,12.4,12.3,12.4h4.4v13.3
		c0,1.6,1.3,2.9,2.8,2.9c0.8,0,1.5-0.3,2-0.9l15.1-15.3h14.1c6.8,0,12.3-5.5,12.3-12.4c0,0,0,0,0,0v-7.6h3.4l17.8,18.2
		c1.1,1.1,2.9,1.1,4,0c0.5-0.5,0.8-1.3,0.8-2.1V73.7H96c7.7,0,13.9-6.3,14-14.1V14.1C110,6.3,103.8,0,96,0C96.1,0,96,0,96,0z
		 M57.3,81.4c0,3.7-2.9,6.7-6.6,6.7H35.4c-0.8,0-1.5,0.3-2,0.8l-11.1,11.3v-9.3c0-1.6-1.3-2.9-2.8-2.9h-7.2c-3.6,0-6.6-3-6.6-6.7
		l0,0V45.1c0-3.7,2.9-6.7,6.6-6.7H24v21.2c0,7.8,6.2,14.1,13.9,14.1h19.4V81.4z M104.3,59.6c0,4.6-3.7,8.3-8.2,8.3c0,0,0,0,0,0h-9.8
		c-1.6,0-2.8,1.3-2.8,2.9v12.1L69.5,68.8c-0.5-0.5-1.3-0.8-2-0.8H37.9c-4.5,0-8.2-3.7-8.2-8.3V14.1c0-4.6,3.7-8.3,8.2-8.3H96
		c4.5,0,8.2,3.7,8.2,8.3L104.3,59.6z"/>
	<linearGradient id="SVGID_2_" gradientUnits="userSpaceOnUse" x1="66.9917" y1="107.3677" x2="66.9917" y2="0.649">
		<stop  offset="0" style="stop-color:#2F5CAC"/>
		<stop  offset="1" style="stop-color:#3B6FCC"/>
	</linearGradient>
	<path class="st1" d="M82.1,22.1c-2.1-2.1-5.5-2.1-7.6,0L63.5,33.3l-4-4.1c-2.1-2.1-5.5-2.1-7.6,0l-4.4,4.4c-2.1,2.1-2.1,5.6,0,7.7
		l12.2,12.4c2.1,2.1,5.5,2.1,7.6,0l19.2-19.5c2.1-2.1,2.1-5.6,0-7.7L82.1,22.1z M63.5,49.3L51.8,37.5l3.9-3.9l5.8,5.9
		c1.1,1.1,2.9,1.1,4,0c0,0,0,0,0,0l12.8-13l3.9,3.9L63.5,49.3z"/>
</g>
</svg>
