<?xml version="1.0" encoding="utf-8"?>
<!-- Generator: Adobe Illustrator 22.0.1, SVG Export Plug-In . SVG Version: 6.00 Build 0)  -->
<svg version="1.1" id="Capa_1" xmlns="http://www.w3.org/2000/svg" xmlns:xlink="http://www.w3.org/1999/xlink" x="0px" y="0px"
	 viewBox="0 0 110 110" style="enable-background:new 0 0 110 110;" xml:space="preserve">
<style type="text/css">
	.st0{fill:url(#SVGID_1_);}
	.st1{fill:url(#SVGID_2_);}
	.st2{fill:url(#SVGID_3_);}
	.st3{fill:url(#SVGID_4_);}
	.st4{fill:url(#SVGID_5_);}
	.st5{fill:url(#SVGID_6_);}
	.st6{fill:url(#SVGID_7_);}
</style>
<g>
	
		<linearGradient id="SVGID_1_" gradientUnits="userSpaceOnUse" x1="55" y1="-107.3333" x2="55" y2="1.5279" gradientTransform="matrix(1 0 0 -1 0 2)">
		<stop  offset="0" style="stop-color:#2F5CAC"/>
		<stop  offset="1" style="stop-color:#3B6FCC"/>
	</linearGradient>
	<path class="st0" d="M68.8,86c1.2-1.2,1.2-3.1,0-4.3L58.1,70.9V58.3c0-1.7-1.4-3.1-3.1-3.1c-1.7,0-3.1,1.4-3.1,3.1v12.6L41.2,81.7
		c-1.2,1.2-1.2,3.1,0,4.3c1.2,1.2,3.1,1.2,4.3,0l9.5-9.5l9.5,9.5C66,87.2,67.5,87.2,68.8,86z"/>
	
		<linearGradient id="SVGID_2_" gradientUnits="userSpaceOnUse" x1="55" y1="-107.3333" x2="55" y2="1.5279" gradientTransform="matrix(1 0 0 -1 0 2)">
		<stop  offset="0" style="stop-color:#2F5CAC"/>
		<stop  offset="1" style="stop-color:#3B6FCC"/>
	</linearGradient>
	<path class="st1" d="M55,22.1c6.1,0,11-5,11-11s-5-11-11-11S44,5,44,11S48.9,22.1,55,22.1z M55,6.1c2.7,0,4.9,2.2,4.9,4.9
		s-2.2,4.9-4.9,4.9s-4.9-2.2-4.9-4.9S52.3,6.1,55,6.1z"/>
	
		<linearGradient id="SVGID_3_" gradientUnits="userSpaceOnUse" x1="54.95" y1="-107.3333" x2="54.95" y2="1.5279" gradientTransform="matrix(1 0 0 -1 0 2)">
		<stop  offset="0" style="stop-color:#2F5CAC"/>
		<stop  offset="1" style="stop-color:#3B6FCC"/>
	</linearGradient>
	<path class="st2" d="M35.4,49.4h39.1c1.7,0,3.1-1.4,3.1-3.1v-7.1c0-2.7-1.1-5.1-3.2-6.8C68.9,28,62,25.5,54.9,25.5S41,28,35.5,32.5
		c-2,1.6-3.2,4.1-3.2,6.8v7.1C32.4,48,33.7,49.4,35.4,49.4z M38.5,39.3c0-0.8,0.3-1.6,0.9-2.1c4.4-3.6,9.9-5.5,15.6-5.5
		s11.2,2,15.6,5.5c0.6,0.5,0.9,1.3,0.9,2.1v4h-33V39.3z"/>
	
		<linearGradient id="SVGID_4_" gradientUnits="userSpaceOnUse" x1="22.6993" y1="-107.3333" x2="22.6993" y2="1.5279" gradientTransform="matrix(1 0 0 -1 0 2)">
		<stop  offset="0" style="stop-color:#2F5CAC"/>
		<stop  offset="1" style="stop-color:#3B6FCC"/>
	</linearGradient>
	<path class="st3" d="M22.7,82.7c6.1,0,11-5,11-11s-5-11-11-11s-11,5-11,11C11.6,77.7,16.6,82.7,22.7,82.7z M22.7,66.7
		c2.7,0,4.9,2.2,4.9,4.9s-2.2,4.9-4.9,4.9s-4.9-2.2-4.9-4.9C17.7,68.9,19.9,66.7,22.7,66.7z"/>
	
		<linearGradient id="SVGID_5_" gradientUnits="userSpaceOnUse" x1="22.65" y1="-107.3333" x2="22.65" y2="1.5279" gradientTransform="matrix(1 0 0 -1 0 2)">
		<stop  offset="0" style="stop-color:#2F5CAC"/>
		<stop  offset="1" style="stop-color:#3B6FCC"/>
	</linearGradient>
	<path class="st4" d="M42,93.1c-5.5-4.5-12.3-6.9-19.4-6.9s-14,2.5-19.4,6.9c-2,1.6-3.2,4.1-3.2,6.8v7.1c0,1.7,1.4,3.1,3.1,3.1h39.1
		c1.7,0,3.1-1.4,3.1-3.1v-7.1C45.2,97.2,44.1,94.7,42,93.1z M39.1,103.9h-33v-4c0-0.8,0.3-1.6,0.9-2.1c4.4-3.6,9.9-5.5,15.6-5.5
		s11.2,2,15.6,5.5c0.6,0.5,0.9,1.3,0.9,2.1V103.9L39.1,103.9z"/>
	
		<linearGradient id="SVGID_6_" gradientUnits="userSpaceOnUse" x1="87.5" y1="-107.3333" x2="87.5" y2="1.5279" gradientTransform="matrix(1 0 0 -1 0 2)">
		<stop  offset="0" style="stop-color:#2F5CAC"/>
		<stop  offset="1" style="stop-color:#3B6FCC"/>
	</linearGradient>
	<path class="st5" d="M87.5,82.7c6.1,0,11-5,11-11s-5-11-11-11s-11,5-11,11S81.4,82.7,87.5,82.7z M87.5,66.7c2.7,0,4.9,2.2,4.9,4.9
		s-2.2,4.9-4.9,4.9c-2.7,0-4.9-2.2-4.9-4.9C82.5,68.9,84.7,66.7,87.5,66.7z"/>
	
		<linearGradient id="SVGID_7_" gradientUnits="userSpaceOnUse" x1="87.45" y1="-107.3333" x2="87.45" y2="1.5279" gradientTransform="matrix(1 0 0 -1 0 2)">
		<stop  offset="0" style="stop-color:#2F5CAC"/>
		<stop  offset="1" style="stop-color:#3B6FCC"/>
	</linearGradient>
	<path class="st6" d="M106.8,93.1c-5.5-4.5-12.3-6.9-19.4-6.9s-14,2.5-19.4,6.9c-2,1.6-3.2,4.1-3.2,6.8v7.1c0,1.7,1.4,3.1,3.1,3.1
		H107c1.7,0,3.1-1.4,3.1-3.1v-7.1C110,97.2,108.9,94.7,106.8,93.1z M103.9,103.9h-33v-4c0-0.8,0.3-1.6,0.9-2.1
		c4.4-3.6,9.9-5.5,15.6-5.5s11.2,2,15.6,5.5c0.6,0.5,0.9,1.3,0.9,2.1V103.9L103.9,103.9z"/>
</g>
</svg>
