<?xml version="1.0" encoding="utf-8"?>
<!-- Generator: Adobe Illustrator 22.0.1, SVG Export Plug-In . SVG Version: 6.00 Build 0)  -->
<svg version="1.1" id="Capa_1" xmlns="http://www.w3.org/2000/svg" xmlns:xlink="http://www.w3.org/1999/xlink" x="0px" y="0px"
	 viewBox="0 0 110 110" style="enable-background:new 0 0 110 110;" xml:space="preserve">
<style type="text/css">
	.st0{fill:url(#SVGID_1_);}
	.st1{fill:url(#SVGID_2_);}
	.st2{fill:url(#SVGID_3_);}
	.st3{fill:url(#SVGID_4_);}
</style>
<g>
	<linearGradient id="SVGID_1_" gradientUnits="userSpaceOnUse" x1="55" y1="110" x2="55" y2="-0.3189">
		<stop  offset="0" style="stop-color:#2F5CAC"/>
		<stop  offset="1" style="stop-color:#3B6FCC"/>
	</linearGradient>
	<path class="st0" d="M108.9,44L92.8,30v-1.5c0-5.1-4.1-9.3-9.2-9.3h-3.2L61,2.2c-3.4-3-8.5-3-11.9,0L29.6,19.2h-3.2
		c-5,0-9.2,4.2-9.2,9.3V30L1.1,44C0.4,44.6,0,45.4,0,46.3v54.3c0,5.1,4.1,9.3,9.2,9.3h91.7c5,0,9.2-4.2,9.2-9.3V46.3
		C110,45.4,109.6,44.6,108.9,44z M92.8,38.1l9.4,8.2l-9.4,8.2V38.1z M53,7c1.1-1,2.8-1,4,0l14,12.2H39L53,7z M23.3,28.5
		c0-1.7,1.4-3.1,3.1-3.1h57.3c1.7,0,3.1,1.4,3.1,3.1v31.4L57,85.7c-1.1,1-2.8,1-4,0L23.3,59.8V28.5z M17.2,38.1v16.4l-9.4-8.2
		L17.2,38.1z M6.1,100.1V53.1l27.1,23.5L6.1,100.1z M11.3,103.8l26.5-23.1L49,90.4c3.4,2.9,8.5,3,11.9,0l11.2-9.7l26.5,23.1
		L11.3,103.8L11.3,103.8z M103.9,100.1L76.9,76.6l27.1-23.5V100.1z"/>
	<linearGradient id="SVGID_2_" gradientUnits="userSpaceOnUse" x1="55.0108" y1="110" x2="55.0108" y2="-0.3189">
		<stop  offset="0" style="stop-color:#2F5CAC"/>
		<stop  offset="1" style="stop-color:#3B6FCC"/>
	</linearGradient>
	<path class="st1" d="M34.5,37.5h41c1.7,0,3.1-1.4,3.1-3.1s-1.4-3.1-3.1-3.1h-41c-1.7,0-3.1,1.4-3.1,3.1S32.8,37.5,34.5,37.5z"/>
	<linearGradient id="SVGID_3_" gradientUnits="userSpaceOnUse" x1="55.0108" y1="110" x2="55.0108" y2="-0.3189">
		<stop  offset="0" style="stop-color:#2F5CAC"/>
		<stop  offset="1" style="stop-color:#3B6FCC"/>
	</linearGradient>
	<path class="st2" d="M78.6,48.5c0-1.7-1.4-3.1-3.1-3.1h-41c-1.7,0-3.1,1.4-3.1,3.1s1.4,3.1,3.1,3.1h41
		C77.2,51.6,78.6,50.2,78.6,48.5z"/>
	<linearGradient id="SVGID_4_" gradientUnits="userSpaceOnUse" x1="55.0108" y1="110" x2="55.0108" y2="-0.3189">
		<stop  offset="0" style="stop-color:#2F5CAC"/>
		<stop  offset="1" style="stop-color:#3B6FCC"/>
	</linearGradient>
	<path class="st3" d="M72.2,62.6c0-1.7-1.4-3.1-3.1-3.1H40.8c-1.7,0-3.1,1.4-3.1,3.1c0,1.7,1.4,3.1,3.1,3.1h28.3
		C70.9,65.7,72.2,64.3,72.2,62.6z"/>
</g>
</svg>
