<?xml version="1.0" encoding="utf-8"?>
<!-- Generator: Adobe Illustrator 22.0.1, SVG Export Plug-In . SVG Version: 6.00 Build 0)  -->
<svg version="1.1" id="Capa_1" xmlns="http://www.w3.org/2000/svg" xmlns:xlink="http://www.w3.org/1999/xlink" x="0px" y="0px"
	 viewBox="0 0 110 110" style="enable-background:new 0 0 110 110;" xml:space="preserve">
<style type="text/css">
	.st0{fill:url(#SVGID_1_);}
	.st1{fill:url(#SVGID_2_);}
	.st2{fill:url(#SVGID_3_);}
	.st3{fill:url(#SVGID_4_);}
	.st4{fill:url(#SVGID_5_);}
	.st5{fill:url(#SVGID_6_);}
</style>
<g>
	<linearGradient id="SVGID_1_" gradientUnits="userSpaceOnUse" x1="34.7216" y1="110.3064" x2="34.7216" y2="-0.7656">
		<stop  offset="0" style="stop-color:#2F5CAC"/>
		<stop  offset="1" style="stop-color:#3B6FCC"/>
	</linearGradient>
	<path class="st0" d="M25.7,43.3c5.1-1.2,10.6-0.8,17.9,1.1c1.5,0.4,3.2-0.5,3.7-2.2c0.4-1.6-0.5-3.3-2.2-3.7
		c-8.3-2.2-14.7-2.5-20.8-1.2c-1.6,0.4-2.7,2-2.3,3.6C22.5,42.6,24.1,43.7,25.7,43.3z"/>
	<linearGradient id="SVGID_2_" gradientUnits="userSpaceOnUse" x1="34.7216" y1="110.3064" x2="34.7216" y2="-0.7656">
		<stop  offset="0" style="stop-color:#2F5CAC"/>
		<stop  offset="1" style="stop-color:#3B6FCC"/>
	</linearGradient>
	<path class="st1" d="M25.7,60.2c5.1-1.2,10.6-0.8,17.9,1.1c1.5,0.4,3.2-0.5,3.7-2.2c0.4-1.6-0.5-3.3-2.2-3.7
		c-8.3-2.2-14.7-2.5-20.8-1.2c-1.6,0.4-2.7,2-2.3,3.6C22.5,59.5,24.1,60.5,25.7,60.2z"/>
	<linearGradient id="SVGID_3_" gradientUnits="userSpaceOnUse" x1="55" y1="110.3064" x2="55" y2="-0.7656">
		<stop  offset="0" style="stop-color:#2F5CAC"/>
		<stop  offset="1" style="stop-color:#3B6FCC"/>
	</linearGradient>
	<path class="st2" d="M100.8,36.6h-4.5v-5.4c0-1.3-0.8-2.5-2.1-2.9c-1.3-0.4-2.7-0.9-4.1-1.3L97.3,14c2.5-4.5,0.9-10.3-3.6-12.8
		c-5-2.7-10.3-0.6-12.7,3.6L70.7,23.3c-6.1,0-11.7,1.5-16.9,4.6c-15.8-5.6-28.5-7.2-40.3,0.8c-0.9,0.6-1.4,1.5-1.4,2.6v5.4h-3
		c-5,0-9.1,4.1-9.1,9.1v49.7c0,5.1,4.1,9.2,9.1,9.2h35c2.3,3.3,6,5.3,10.1,5.3s7.8-2,10.1-5.3h36.6c5,0,9.1-4.1,9.1-9.2V45.7
		C110,40.7,105.9,36.6,100.8,36.6z M86.2,7.8c0.8-1.5,2.9-2.2,4.5-1.3c1.6,0.9,2.2,2.9,1.3,4.5l-0.9,1.7l-5.7-3.2L86.2,7.8z
		 M82.4,14.8l5.7,3.2l-7.3,13.1l-5.7-3.2L82.4,14.8z M70.4,36.4l1.8-3.2l5.7,3.2l-1.8,3.2l-5.8,3.8L70.4,36.4z M57.3,32.9
		c3.1-1.8,6.4-2.9,10-3.3l-2.6,4.6c-0.2,0.4-0.4,0.9-0.4,1.4L64.1,49c0,2.5,2.6,3.9,4.7,2.6L80,44.4c0.4-0.3,0.8-0.7,1-1.1l6-10.9
		c1.1,0.3,2.1,0.7,3.1,1V87c-10.7-3.4-21.7-6.1-32.9-1V32.9z M18.2,32.9c9.4-5.8,21.3-3.7,32.9,0.5V87c-11.3-3.8-22.4-5.7-32.9-1
		V32.9z M103.9,95.5c0,1.7-1.4,3.1-3.1,3.1H62.5c-1.2,0-2.3,0.7-2.8,1.8c-1,2.2-3.2,3.6-5.5,3.6c-2.4,0-4.5-1.4-5.5-3.6
		c-0.5-1.1-1.6-1.8-2.8-1.8H9.1c-1.7,0-3.1-1.4-3.1-3.1V45.7c0-1.7,1.4-3.1,3.1-3.1h3.1v48.5c0,2.4,2.7,3.8,4.7,2.6
		c11.1-7.1,21.3-4.7,36.4,0.3l0,0c1,0.3,1.8,0.2,2.6-0.3C67.7,86,79.7,90,92.3,94.1c2.2,0.7,4-1,4-2.9V42.7h4.5
		c1.7,0,3.1,1.4,3.1,3.1L103.9,95.5L103.9,95.5z"/>
	<linearGradient id="SVGID_4_" gradientUnits="userSpaceOnUse" x1="34.7216" y1="110.3064" x2="34.7216" y2="-0.7656">
		<stop  offset="0" style="stop-color:#2F5CAC"/>
		<stop  offset="1" style="stop-color:#3B6FCC"/>
	</linearGradient>
	<path class="st3" d="M47.3,75.9c0.4-1.6-0.5-3.3-2.2-3.7C36.9,70,30.5,69.7,24.4,71c-1.6,0.4-2.7,2-2.3,3.6c0.4,1.7,2,2.7,3.6,2.3
		c5.1-1.2,10.6-0.8,17.9,1.1C45.1,78.5,46.8,77.6,47.3,75.9z"/>
	<linearGradient id="SVGID_5_" gradientUnits="userSpaceOnUse" x1="73.7194" y1="110.3064" x2="73.7194" y2="-0.7656">
		<stop  offset="0" style="stop-color:#2F5CAC"/>
		<stop  offset="1" style="stop-color:#3B6FCC"/>
	</linearGradient>
	<path class="st4" d="M64.8,61.3c7.3-1.9,12.8-2.3,17.9-1.1c1.6,0.4,3.3-0.7,3.6-2.3s-0.7-3.3-2.3-3.6c-6.1-1.4-12.5-1-20.8,1.2
		c-1.6,0.4-2.6,2.1-2.2,3.7C61.6,60.8,63.3,61.7,64.8,61.3z"/>
	<linearGradient id="SVGID_6_" gradientUnits="userSpaceOnUse" x1="73.7411" y1="110.3064" x2="73.7411" y2="-0.7656">
		<stop  offset="0" style="stop-color:#2F5CAC"/>
		<stop  offset="1" style="stop-color:#3B6FCC"/>
	</linearGradient>
	<path class="st5" d="M82.7,77c1.6,0.4,3.3-0.7,3.6-2.3c0.4-1.7-0.7-3.3-2.3-3.6c-6.1-1.4-12.5-1-20.8,1.2c-1.6,0.4-2.6,2.1-2.2,3.7
		c0.5,1.7,2.2,2.6,3.7,2.2C72.1,76.2,77.6,75.9,82.7,77z"/>
</g>
</svg>
