<?xml version="1.0" encoding="utf-8"?>
<!-- Generator: Adobe Illustrator 22.0.1, SVG Export Plug-In . SVG Version: 6.00 Build 0)  -->
<svg version="1.1" id="Capa_1" xmlns="http://www.w3.org/2000/svg" xmlns:xlink="http://www.w3.org/1999/xlink" x="0px" y="0px"
	 viewBox="0 0 110 94" style="enable-background:new 0 0 110 94;" xml:space="preserve">
<style type="text/css">
	.st0{fill:url(#SVGID_1_);}
	.st1{fill:url(#SVGID_2_);}
	.st2{fill:url(#SVGID_3_);}
	.st3{fill:url(#SVGID_4_);}
	.st4{fill:url(#SVGID_5_);}
</style>
<g>
	<linearGradient id="SVGID_1_" gradientUnits="userSpaceOnUse" x1="55.0108" y1="93.9143" x2="55.0108" y2="1.067683e-02">
		<stop  offset="0" style="stop-color:#2F5CAC"/>
		<stop  offset="1" style="stop-color:#3B6FCC"/>
	</linearGradient>
	<path class="st0" d="M93.2,13.3H16.8c-1.7,0-3.1,1.4-3.1,3.1s1.4,3.1,3.1,3.1h76.4c1.7,0,3.1-1.4,3.1-3.1
		C96.3,14.7,94.9,13.3,93.2,13.3z"/>
	<linearGradient id="SVGID_2_" gradientUnits="userSpaceOnUse" x1="32.4759" y1="93.9143" x2="32.4759" y2="1.067683e-02">
		<stop  offset="0" style="stop-color:#2F5CAC"/>
		<stop  offset="1" style="stop-color:#3B6FCC"/>
	</linearGradient>
	<path class="st1" d="M48.1,28.8H16.8c-1.7,0-3.1,1.4-3.1,3.1c0,1.7,1.4,3.1,3.1,3.1h31.3c1.7,0,3.1-1.4,3.1-3.1
		C51.2,30.2,49.8,28.8,48.1,28.8z"/>
	<linearGradient id="SVGID_3_" gradientUnits="userSpaceOnUse" x1="32.4759" y1="93.9143" x2="32.4759" y2="1.067683e-02">
		<stop  offset="0" style="stop-color:#2F5CAC"/>
		<stop  offset="1" style="stop-color:#3B6FCC"/>
	</linearGradient>
	<path class="st2" d="M48.1,44.3H16.8c-1.7,0-3.1,1.4-3.1,3.1c0,1.7,1.4,3.1,3.1,3.1h31.3c1.7,0,3.1-1.4,3.1-3.1
		S49.8,44.3,48.1,44.3z"/>
	<linearGradient id="SVGID_4_" gradientUnits="userSpaceOnUse" x1="32.4759" y1="93.9143" x2="32.4759" y2="1.067683e-02">
		<stop  offset="0" style="stop-color:#2F5CAC"/>
		<stop  offset="1" style="stop-color:#3B6FCC"/>
	</linearGradient>
	<path class="st3" d="M48.1,59.9H16.8c-1.7,0-3.1,1.4-3.1,3.1c0,1.7,1.4,3.1,3.1,3.1h31.3c1.7,0,3.1-1.4,3.1-3.1
		C51.2,61.2,49.8,59.9,48.1,59.9z"/>
	<linearGradient id="SVGID_5_" gradientUnits="userSpaceOnUse" x1="55" y1="94" x2="55" y2="9.638511e-02">
		<stop  offset="0" style="stop-color:#2F5CAC"/>
		<stop  offset="1" style="stop-color:#3B6FCC"/>
	</linearGradient>
	<path class="st4" d="M100.9,0H9.2C4.1,0,0,4.2,0,9.3V70c0,5.2,4.1,9.3,9.2,9.3h57.2v11.5c0,2.4,2.7,4,4.7,2.7l6.8-4.2l6.8,4.2
		c1.9,1.3,4.7-0.2,4.7-2.7V79.4h11.5c5,0,9.2-4.2,9.2-9.3V9.3C110,4.2,105.9,0,100.9,0z M83.2,85.3L79.5,83c-1-0.6-2.2-0.6-3.2,0
		l-3.7,2.3V68.1c1.7,0.5,3.5,0.8,5.3,0.8s3.7-0.3,5.3-0.8L83.2,85.3L83.2,85.3z M77.9,62.6c-6.8,0-12.3-5.6-12.3-12.5
		s5.5-12.5,12.3-12.5c6.8,0,12.3,5.6,12.3,12.5S84.6,62.6,77.9,62.6z M103.9,70c0,1.7-1.4,3.1-3.1,3.1H89.3v-8.4
		c4.2-3.4,6.9-8.7,6.9-14.6c0-10.3-8.3-18.7-18.4-18.7c-10.1,0-18.4,8.4-18.4,18.7c0,5.9,2.7,11.2,6.9,14.6v8.4H9.2
		c-1.7,0-3.1-1.4-3.1-3.1V9.3c0-1.7,1.4-3.1,3.1-3.1h91.7c1.7,0,3.1,1.4,3.1,3.1L103.9,70L103.9,70z"/>
</g>
</svg>
