<?xml version="1.0" encoding="utf-8"?>
<!-- Generator: Adobe Illustrator 22.0.1, SVG Export Plug-In . SVG Version: 6.00 Build 0)  -->
<svg version="1.1" id="Capa_1" xmlns="http://www.w3.org/2000/svg" xmlns:xlink="http://www.w3.org/1999/xlink" x="0px" y="0px"
	 viewBox="0 0 110 110" style="enable-background:new 0 0 110 110;" xml:space="preserve">
<style type="text/css">
	.st0{fill:url(#SVGID_1_);}
</style>
<linearGradient id="SVGID_1_" gradientUnits="userSpaceOnUse" x1="55" y1="109.3333" x2="55" y2="-0.1554">
	<stop  offset="0" style="stop-color:#2F5CAC"/>
	<stop  offset="1" style="stop-color:#3B6FCC"/>
</linearGradient>
<path class="st0" d="M97.9,43.5c6.7,0,12.1-5.4,12.1-12.1s-5.4-12.1-12.1-12.1s-12.1,5.4-12.1,12.1c0,1.1,0.2,2.1,0.4,3.1L59.9,49.3
	c-2.2-2.3-5.4-3.8-8.9-3.8c-1.9,0-3.7,0.4-5.3,1.2L29.1,26.9c2.3-2.8,3.7-6.5,3.7-10.4C32.9,7.4,25.5,0,16.4,0C7.4,0,0,7.4,0,16.5
	s7.4,16.5,16.5,16.5c2.9,0,5.6-0.8,8-2.1L41,50.6c-1.5,2-2.3,4.5-2.3,7.2c0,3.2,1.3,6.1,3.3,8.4l-9.5,14.8c-1-0.3-2.1-0.5-3.2-0.5
	c-5.8,0-10.6,4.7-10.6,10.6c0,5.8,4.7,10.6,10.6,10.6S39.8,96.8,39.8,91c0-2.5-0.9-4.7-2.3-6.5l9.6-15c1.2,0.4,2.5,0.6,3.9,0.6
	c2.2,0,4.3-0.6,6.1-1.6l18.7,19.3c-1.5,2.3-2.4,5-2.4,7.9c0,7.9,6.4,14.3,14.3,14.3s14.3-6.4,14.3-14.3s-6.4-14.3-14.3-14.3
	c-2.8,0-5.3,0.8-7.5,2.1L61.5,64.2c1.1-1.9,1.8-4.1,1.8-6.4c0-1.1-0.2-2.2-0.4-3.2l26.3-14.8C91.4,42.1,94.5,43.5,97.9,43.5z
	 M6.1,16.5c0-5.7,4.6-10.3,10.3-10.3s10.3,4.6,10.3,10.3s-4.6,10.3-10.3,10.3S6.1,22.2,6.1,16.5z M29.2,95.4c-2.4,0-4.5-2-4.5-4.5
	c0-2.4,2-4.5,4.5-4.5c2.4,0,4.5,2,4.5,4.5C33.7,93.4,31.7,95.4,29.2,95.4z M51,64c-3.4,0-6.2-2.8-6.2-6.2c0-3.4,2.8-6.2,6.2-6.2
	s6.2,2.8,6.2,6.2C57.2,61.2,54.4,64,51,64z M95.8,95.7c0,4.5-3.7,8.2-8.2,8.2c-4.5,0-8.2-3.7-8.2-8.2c0-4.5,3.7-8.2,8.2-8.2
	C92.1,87.6,95.8,91.2,95.8,95.7z M97.9,25.4c3.3,0,6,2.7,6,6s-2.7,6-6,6s-6-2.7-6-6S94.6,25.4,97.9,25.4z"/>
</svg>
