<?xml version="1.0" encoding="utf-8"?>
<!-- Generator: Adobe Illustrator 22.0.1, SVG Export Plug-In . SVG Version: 6.00 Build 0)  -->
<svg version="1.1" id="Capa_1" xmlns="http://www.w3.org/2000/svg" xmlns:xlink="http://www.w3.org/1999/xlink" x="0px" y="0px"
	 viewBox="0 0 110 86" style="enable-background:new 0 0 110 86;" xml:space="preserve">
<style type="text/css">
	.st0{fill:url(#SVGID_1_);}
</style>
<linearGradient id="SVGID_1_" gradientUnits="userSpaceOnUse" x1="55" y1="85" x2="55" y2="0.5192">
	<stop  offset="0" style="stop-color:#2F5CAC"/>
	<stop  offset="1" style="stop-color:#3B6FCC"/>
</linearGradient>
<path class="st0" d="M110,23.1c-0.2-1.2-0.9-2-1.9-2.5L56.1,0.2c-0.7-0.3-1.5-0.3-2.2,0L1.9,20.6c-2.7,1.1-2.5,4.7,0,5.7l17.6,6.9
	v37c0,1.3,0.8,2.4,1.9,2.8l32.3,12.7c0.7,0.4,1.5,0.4,2.2,0L88.5,73c1.2-0.5,1.9-1.6,1.9-2.8v-37l13.5-5.3v35.9
	c0,1.7,1.4,3.1,3.1,3.1s3.1-1.4,3.1-3.1C110,63.7,110,23.2,110,23.1z M84.3,68.1L55,79.6L25.7,68.1v-1.4h8.9c1.7,0,3.1-1.4,3.1-3.1
	c0-1.7-1.4-3.1-3.1-3.1h-8.9v-4.8h16.5c1.7,0,3.1-1.4,3.1-3.1c0-1.7-1.4-3.1-3.1-3.1H25.7V35.6l28.2,11.1c0.7,0.3,1.4,0.3,2.2,0
	l28.2-11V68.1z M55,40.5L11.4,23.4L55,6.3l43.6,17.1L55,40.5z"/>
</svg>
