<?xml version="1.0" encoding="utf-8"?>
<!-- Generator: Adobe Illustrator 22.0.1, SVG Export Plug-In . SVG Version: 6.00 Build 0)  -->
<svg version="1.1" id="Capa_1" xmlns="http://www.w3.org/2000/svg" xmlns:xlink="http://www.w3.org/1999/xlink" x="0px" y="0px"
	 viewBox="0 0 78 110" style="enable-background:new 0 0 78 110;" xml:space="preserve">
<style type="text/css">
	.st0{fill:url(#SVGID_1_);}
	.st1{fill:url(#SVGID_2_);}
	.st2{fill:url(#SVGID_3_);}
	.st3{fill:url(#SVGID_4_);}
</style>
<g>
	<linearGradient id="SVGID_1_" gradientUnits="userSpaceOnUse" x1="39" y1="109.694" x2="39" y2="-0.1783">
		<stop  offset="0" style="stop-color:#2F5CAC"/>
		<stop  offset="1" style="stop-color:#3B6FCC"/>
	</linearGradient>
	<path class="st0" d="M68.8,33.4h-3.1V23.1c0-5-4.1-9.2-9.2-9.2h-9.9v-0.2C46.6,6.2,40.4,0,32.8,0S19,6.2,19,13.8v0.2H9.2
		C4.1,13.9,0,18,0,23.1v64.4c0,5,4.1,9.2,9.2,9.2h6.1v4.2c0,5,4.1,9.2,9.2,9.2h31.8c2.5,0,4.8-1,6.5-2.7l12.5-12.4
		c1.7-1.7,2.7-4,2.7-6.5V42.6C78,37.5,73.9,33.4,68.8,33.4z M56.5,20c1.7,0,3.1,1.4,3.1,3.1v10.4h-13V20H56.5z M25.1,13.8
		c0-4.2,3.4-7.6,7.7-7.6s7.7,3.4,7.7,7.6v0.2H25.1L25.1,13.8L25.1,13.8z M9.2,90.5c-1.7,0-3.1-1.4-3.1-3.1V23.1
		c0-1.7,1.4-3.1,3.1-3.1h31.3v13.4h-6.1v-6.3c0-1.7-1.4-3.1-3.1-3.1s-3.1,1.4-3.1,3.1v6.3h-3.6c-5.1,0-9.2,4.1-9.2,9.2v47.9
		L9.2,90.5L9.2,90.5z M34.3,39.5h6.1v1.9c0,1.7-1.4,3.1-3.1,3.1c-1.7,0-3.1-1.4-3.1-3.1V39.5z M21.5,100.9V42.6
		c0-1.7,1.4-3.1,3.1-3.1h3.6v1.9c0,5,4.1,9.2,9.2,9.2s9.2-4.1,9.2-9.2v-1.9h22.2c1.7,0,3.1,1.4,3.1,3.1v45.3h-13
		c-1.7,0-3.1,1.4-3.1,3.1v13H24.6C22.9,103.9,21.5,102.5,21.5,100.9z M62,99.6V94h5.6L62,99.6z"/>
	<linearGradient id="SVGID_2_" gradientUnits="userSpaceOnUse" x1="46.691" y1="109.694" x2="46.691" y2="-0.1783">
		<stop  offset="0" style="stop-color:#2F5CAC"/>
		<stop  offset="1" style="stop-color:#3B6FCC"/>
	</linearGradient>
	<path class="st1" d="M30.2,62h32.9c1.7,0,3.1-1.4,3.1-3.1c0-1.7-1.4-3.1-3.1-3.1H30.2c-1.7,0-3.1,1.4-3.1,3.1
		C27.1,60.6,28.5,62,30.2,62z"/>
	<linearGradient id="SVGID_3_" gradientUnits="userSpaceOnUse" x1="46.691" y1="109.694" x2="46.691" y2="-0.1783">
		<stop  offset="0" style="stop-color:#2F5CAC"/>
		<stop  offset="1" style="stop-color:#3B6FCC"/>
	</linearGradient>
	<path class="st2" d="M30.2,78h32.9c1.7,0,3.1-1.4,3.1-3.1c0-1.7-1.4-3.1-3.1-3.1H30.2c-1.7,0-3.1,1.4-3.1,3.1
		C27.1,76.6,28.5,78,30.2,78z"/>
	<linearGradient id="SVGID_4_" gradientUnits="userSpaceOnUse" x1="38.4125" y1="109.694" x2="38.4125" y2="-0.1783">
		<stop  offset="0" style="stop-color:#2F5CAC"/>
		<stop  offset="1" style="stop-color:#3B6FCC"/>
	</linearGradient>
	<path class="st3" d="M46.6,87.9H30.2c-1.7,0-3.1,1.4-3.1,3.1s1.4,3.1,3.1,3.1h16.4c1.7,0,3.1-1.4,3.1-3.1
		C49.7,89.3,48.3,87.9,46.6,87.9z"/>
</g>
</svg>
