<?xml version="1.0" encoding="utf-8"?>
<!-- Generator: Adobe Illustrator 22.0.1, SVG Export Plug-In . SVG Version: 6.00 Build 0)  -->
<svg version="1.1" id="Capa_1" xmlns="http://www.w3.org/2000/svg" xmlns:xlink="http://www.w3.org/1999/xlink" x="0px" y="0px"
	 viewBox="0 0 110 110" style="enable-background:new 0 0 110 110;" xml:space="preserve">
<style type="text/css">
	.st0{fill:url(#SVGID_1_);}
	.st1{fill:url(#SVGID_2_);}
	.st2{fill:url(#SVGID_3_);}
	.st3{fill:url(#SVGID_4_);}
</style>
<g>
	<linearGradient id="SVGID_1_" gradientUnits="userSpaceOnUse" x1="85.7815" y1="110.0652" x2="85.7815" y2="-0.329">
		<stop  offset="0" style="stop-color:#2F5CAC"/>
		<stop  offset="1" style="stop-color:#3B6FCC"/>
	</linearGradient>
	<path class="st0" d="M108.7,23.8c-1.4-1-3.3-0.6-4.2,0.8c-11.1,16-8.3,38-6.6,46.9H64.6c-1.7,0-3.1,1.4-3.1,3.1
		c0,1.7,1.4,3.1,3.1,3.1h3v29.3c0,1.7,1.4,3.1,3.1,3.1c1.7,0,3.1-1.4,3.1-3.1V93.8h18.8v13.1c0,1.7,1.4,3.1,3.1,3.1
		c1.7,0,3.1-1.4,3.1-3.1V77.6h3c2.2-0.2,3.4-1.9,2.9-3.9c-0.1-0.3-7.4-28,4.9-45.7C110.4,26.7,110.1,24.8,108.7,23.8z M92.5,87.7
		H73.8V77.6h18.8V87.7z"/>
	<linearGradient id="SVGID_2_" gradientUnits="userSpaceOnUse" x1="55.0011" y1="110.0652" x2="55.0011" y2="-0.329">
		<stop  offset="0" style="stop-color:#2F5CAC"/>
		<stop  offset="1" style="stop-color:#3B6FCC"/>
	</linearGradient>
	<path class="st1" d="M55,43.1c11.9,0,21.6-9.7,21.6-21.6S66.9,0,55,0S33.4,9.7,33.4,21.6S43.1,43.1,55,43.1z M55,6.1
		c8.5,0,15.5,6.9,15.5,15.5C70.5,30.1,63.5,37,55,37s-15.5-6.9-15.5-15.5S46.5,6.1,55,6.1z"/>
	<linearGradient id="SVGID_3_" gradientUnits="userSpaceOnUse" x1="51.9151" y1="110.0652" x2="51.9151" y2="-0.329">
		<stop  offset="0" style="stop-color:#2F5CAC"/>
		<stop  offset="1" style="stop-color:#3B6FCC"/>
	</linearGradient>
	<path class="st2" d="M48.8,24.6H55c1.7,0,3.1-1.4,3.1-3.1v-9.2c0-1.7-1.4-3.1-3.1-3.1c-1.7,0-3.1,1.4-3.1,3.1v6.2h-3.1
		c-1.7,0-3.1,1.4-3.1,3.1S47.1,24.6,48.8,24.6z"/>
	<linearGradient id="SVGID_4_" gradientUnits="userSpaceOnUse" x1="29.4031" y1="110" x2="29.4031" y2="-0.3942">
		<stop  offset="0" style="stop-color:#2F5CAC"/>
		<stop  offset="1" style="stop-color:#3B6FCC"/>
	</linearGradient>
	<path class="st3" d="M56.3,52.9L3.7,42.5c-1.6-0.3-3.3,0.7-3.6,2.4c-0.3,1.6,0.7,3.3,2.4,3.6l4.1,0.8v57.7c0,1.7,1.4,3.1,3.1,3.1
		s3.1-1.4,3.1-3.1v-9.4h4.6c1.7,0,3.1-1.4,3.1-3.1s-1.4-3.1-3.1-3.1h-4.6v-4.8h9.6c1.7,0,3.1-1.4,3.1-3.1c0-1.7-1.4-3.1-3.1-3.1
		h-9.6V72h33.4v34.9c0,1.7,1.4,3.1,3.1,3.1c1.7,0,3.1-1.4,3.1-3.1V58.3c0,0,3.3,0.6,3.5,0.6c1.4,0,2.7-1,3-2.5
		C59.1,54.9,58,53.3,56.3,52.9z M46.1,65.9H12.7V50.5l33.4,6.6V65.9z"/>
</g>
</svg>
