<?xml version="1.0" encoding="utf-8"?>
<!-- Generator: Adobe Illustrator 22.0.1, SVG Export Plug-In . SVG Version: 6.00 Build 0)  -->
<svg version="1.1" id="Capa_1" xmlns="http://www.w3.org/2000/svg" xmlns:xlink="http://www.w3.org/1999/xlink" x="0px" y="0px"
	 viewBox="0 0 110 94" style="enable-background:new 0 0 110 94;" xml:space="preserve">
<style type="text/css">
	.st0{fill:url(#SVGID_1_);}
	.st1{fill:url(#SVGID_2_);}
	.st2{fill:url(#SVGID_3_);}
	.st3{fill:url(#SVGID_4_);}
	.st4{fill:url(#SVGID_5_);}
	.st5{fill:url(#SVGID_6_);}
	.st6{fill:url(#SVGID_7_);}
</style>
<g>
	<g>
		<g>
			
				<linearGradient id="SVGID_1_" gradientUnits="userSpaceOnUse" x1="76.1796" y1="-91.8023" x2="76.1796" y2="2.7301" gradientTransform="matrix(1 0 0 -1 0 2)">
				<stop  offset="0" style="stop-color:#2F5CAC"/>
				<stop  offset="1" style="stop-color:#3B6FCC"/>
			</linearGradient>
			<path class="st0" d="M78.6,65.9h0.3l0.5,1.6l2.1-0.9L81,65l0.5-0.4c0.3-0.2,0.7-0.4,0.9-0.7c1.9-1.6,2.6-3.5,2.1-5.6
				c-0.7-2.6-2.1-4.2-4.4-4.6c-0.9-0.2-1.7-0.2-2.4-0.2c-0.5,0-0.9,0-1.2,0c-0.3,0-0.5,0-0.9,0c-0.7,0-1.4-0.2-2.1-0.2
				c-1-0.2-1.9-1.2-1.9-2.6c0-1.1,0.5-1.8,1.7-2.3c1.2-0.5,2.3-0.2,3,0.7c0.2,0.4,0.3,0.5,0.5,0.9l0,0c0,0.2,0.2,0.2,0.2,0.4
				l3.8-1.4c-0.3-1.1-1-2.3-1.9-3c-1.4-1.1-3-1.4-5.2-1.1h-0.3l-0.7-1.8L70.6,44l0.7,1.6l-0.2,0.3c-0.2,0.2-0.3,0.4-0.5,0.5
				c-0.5,0.4-1,0.9-1.4,1.2C67.8,49,67.5,51.1,68,53c0.5,1.9,2.1,3.3,3.8,3.9c0.9,0.2,1.9,0.4,3,0.4c0.5,0,0.9,0,1.4,0
				c0.2,0,0.5,0,0.7,0h0.2c0.7,0,1.2,0,1.7,0.2c1,0.2,1.9,1.2,2.1,2.6c0,1.1-0.5,1.9-1.7,2.5c-0.3,0.2-0.5,0.2-0.9,0.4
				c-1.4,0.5-2.8-0.2-3.5-1.4l-0.2-0.2l-0.2-0.9l-3.7,1.4C71.6,65.2,74.2,66.4,78.6,65.9z"/>
			
				<linearGradient id="SVGID_2_" gradientUnits="userSpaceOnUse" x1="73.6657" y1="-91.8023" x2="73.6657" y2="2.7301" gradientTransform="matrix(1 0 0 -1 0 2)">
				<stop  offset="0" style="stop-color:#2F5CAC"/>
				<stop  offset="1" style="stop-color:#3B6FCC"/>
			</linearGradient>
			<polygon class="st1" points="62.5,37.2 83.4,29.1 84.9,32.9 64,40.9 			"/>
			
				<linearGradient id="SVGID_3_" gradientUnits="userSpaceOnUse" x1="76.8141" y1="-91.8023" x2="76.8141" y2="2.7301" gradientTransform="matrix(1 0 0 -1 0 2)">
				<stop  offset="0" style="stop-color:#2F5CAC"/>
				<stop  offset="1" style="stop-color:#3B6FCC"/>
			</linearGradient>
			<polygon class="st2" points="72.2,23.1 80,20 81.5,23.8 73.7,26.8 			"/>
		</g>
		<g>
			
				<linearGradient id="SVGID_4_" gradientUnits="userSpaceOnUse" x1="40.1528" y1="-91.8023" x2="40.1528" y2="2.7301" gradientTransform="matrix(1 0 0 -1 0 2)">
				<stop  offset="0" style="stop-color:#2F5CAC"/>
				<stop  offset="1" style="stop-color:#3B6FCC"/>
			</linearGradient>
			<path class="st3" d="M37.5,33.2c2.3-3.3,4.5-6.7,6.8-10.2l-4.7,1.9c-2.8,1.1-4.4,4.4-3.1,7.2l0.7,1.8L37.5,33.2z"/>
			
				<linearGradient id="SVGID_5_" gradientUnits="userSpaceOnUse" x1="79.0391" y1="-91.8023" x2="79.0391" y2="2.7301" gradientTransform="matrix(1 0 0 -1 0 2)">
				<stop  offset="0" style="stop-color:#2F5CAC"/>
				<stop  offset="1" style="stop-color:#3B6FCC"/>
			</linearGradient>
			<path class="st4" d="M82.1,8.3l-7,2.6c-0.3,0.7-0.7,1.4-1,2.1c-0.9,1.6-1.6,3.2-2.4,4.6l12.2-4.7c0.3-0.2,0.7,0,0.9,0.4l20,51.6
				c-1-0.5-2.1-0.9-3.1-1.4l-1.6-0.7c-1.2-0.5-2.8,0-3.5,1.2c-0.2,0.4-0.5,1.1-0.9,1.9c-0.5,1.2-1,2.6-1.6,3.5l-0.2,0.2
				c-1.6-0.7-3.3-1.4-4.9-2.1c-1.4-0.7-3.1,0-3.7,1.4C85,70,83.7,72.6,83,74.2c-1.3-0.7-4.1-2-5.1-2.3c-1.4-0.5-3.1,0-3.7,1.4
				c-0.7,1.6-1.4,3.3-2.1,4.9l-0.2,0.2c-0.9-0.4-2.3-1.1-3.5-1.6c-0.9-0.4-1.6-0.7-1.9-0.9c-1.2-0.5-2.8,0-3.3,1.4l-0.7,1.6
				C62,80,61.6,81,61.1,82.1l-10-25.5c-1,1.9-1.9,3.9-3,5.8L56.9,85c0,0.2,0.2,0.4,0.2,0.5c0.5,1.2,1.7,2.1,3,2.5
				c1.2,0.4,2.6-0.2,3.7-1.1c0.7-0.7,1-1.4,1.4-1.9c0.5-1.1,1-2.3,1.6-3.5c1.2,0.5,2.8,1.2,3.7,1.6c2.3,0.9,4.5,0.2,5.8-2.1
				c0.2-0.2,0.2-0.5,0.3-0.7v-0.2c0.3-1.1,0.9-1.9,1.2-3c1.2,0.5,2.6,1.1,3.5,1.6c1.4,0.5,2.6,0.7,3.7,0.2c1-0.4,1.9-1.2,2.4-2.6
				c0.3-0.9,1-2.3,1.6-3.5c1,0.5,1.9,0.9,3,1.2l0.2,0.2c0.2,0.2,0.5,0.2,0.7,0.4c2.3,0.9,4.5,0,5.6-2.3c0.3-0.9,1-2.5,1.6-3.7
				c1.2,0.5,2.3,1.1,3.5,1.6c0.5,0.2,1.2,0.5,2.3,0.5c1.4,0,2.6-0.7,3.3-1.8c0.9-1.1,1-2.5,0.7-3.9c0-0.2-0.2-0.4-0.2-0.5L89.3,11.4
				C88,8.6,84.9,7.2,82.1,8.3z"/>
		</g>
	</g>
	<g>
		<linearGradient id="SVGID_6_" gradientUnits="userSpaceOnUse" x1="45.8806" y1="0.1267" x2="45.8806" y2="94.659">
			<stop  offset="0" style="stop-color:#2F5CAC"/>
			<stop  offset="1" style="stop-color:#3B6FCC"/>
		</linearGradient>
		<path class="st5" d="M74.9,0.9c-0.2-0.4-0.3-0.5-0.5-0.7S73.9,0,73.7,0c-0.3,0-0.7,0-1,0.2l-0.5,0.4c-3,1.8-5.9,3.7-9.1,5.6
			c-0.2,0.2-0.5,0.4-0.7,0.7c-0.5,0.4-0.9,0.7-1.4,1.2c-2.1,1.9-3.8,4-5.4,6.5c-1.6,2.5-3.3,4.9-4.9,7.4c-3.1,4.6-6.1,9.1-9.3,13.7
			c-0.3,0.5-0.7,1.2-1.2,1.8c-1.7,2.5-3.5,5.3-5.4,8.1c-2.1,3-3,6.3-3,10c0,2.5-0.3,4.9-0.7,7c-0.3,1.8-1.2,2.6-3.1,3.2
			c-4.5,1.1-8,4-10,8.3c-1.9,4.2-1.6,9,0.7,13v0.2c2.1,3.5,5.4,6,9.4,6.8c3.4,0.2,7.5-0.7,10.8-3.2c5.9-4.4,7.5-12.5,3.8-18.8
			c-0.3-0.5-0.5-1.1-0.9-1.4c-1-1.6-1.2-2.8-0.3-4.6c5.6-10.5,10.3-19.5,14.9-28.3c4.2-8.3,8.7-16.9,14-26.7
			c1.4-2.6,2.8-5.4,4.2-8.1c0.1,0,0.1-0.2,0.3-0.5C75.1,2,75.1,1.4,74.9,0.9z M35,87.3c-2.1,1.1-4.5,1.4-7,0.9
			c-2.3-0.7-4.2-2.1-5.4-4.2c-2.4-4.4-1-9.8,3.3-12.5c4.3-2.7,9.8-1.1,12.4,3.3C40.7,79.2,39.3,84.6,35,87.3z M42.2,56.3
			c-2.1,1.4-4.9,0.7-6.1-1.6c-1.2-2.1-0.5-4.9,1.6-6.1c2.1-1.2,4.9-0.5,6.1,1.6C45,52.3,44.3,55.1,42.2,56.3z"/>
		<linearGradient id="SVGID_7_" gradientUnits="userSpaceOnUse" x1="16.4927" y1="-17.1469" x2="16.4927" y2="77.3855">
			<stop  offset="0" style="stop-color:#2F5CAC"/>
			<stop  offset="1" style="stop-color:#3B6FCC"/>
		</linearGradient>
		<path class="st6" d="M31.4,40.3c-1.7-0.7-2.6-1.8-2.8-3.5c0-0.5-0.2-1.2-0.3-1.8c-1.6-7.2-8.2-11.9-15.6-11.1
			c-4,0.5-7.7,2.6-10.1,6c-2.3,3.3-3.1,7.4-2.3,11.4v0.2c1,4.6,4,8.1,8.2,10c4.2,1.9,8.9,1.6,12.9-0.7c1.7-1.1,3.1-1.1,4.4,0.2
			c0.5,0.5,1.2,1.1,1.9,1.6c0.7-3.7,1.7-6.5,3.7-9.3c0.5-0.9,1-1.6,1.6-2.5C32.5,40.6,32,40.4,31.4,40.3z M16.5,47
			c-5.1,1.2-9.8-1.9-10.8-6.8c-0.5-2.5-0.2-4.7,1.2-6.8c1.2-2.1,3.3-3.5,5.6-4c4.9-1.1,9.8,1.9,10.8,6.8
			C24.4,41.2,21.4,45.9,16.5,47z"/>
	</g>
</g>
</svg>
