<?xml version="1.0" encoding="utf-8"?>
<!-- Generator: Adobe Illustrator 22.0.1, SVG Export Plug-In . SVG Version: 6.00 Build 0)  -->
<svg version="1.1" id="Capa_1" xmlns="http://www.w3.org/2000/svg" xmlns:xlink="http://www.w3.org/1999/xlink" x="0px" y="0px"
	 viewBox="0 0 110 110" style="enable-background:new 0 0 110 110;" xml:space="preserve">
<style type="text/css">
	.st0{fill:url(#SVGID_1_);}
	.st1{fill:url(#SVGID_2_);}
	.st2{fill:url(#SVGID_3_);}
	.st3{fill:url(#SVGID_4_);}
	.st4{fill:url(#SVGID_5_);}
	.st5{fill:url(#SVGID_6_);}
	.st6{fill:url(#SVGID_7_);}
	.st7{fill:url(#SVGID_8_);}
</style>
<g>
	<linearGradient id="SVGID_1_" gradientUnits="userSpaceOnUse" x1="55" y1="110" x2="55" y2="-4.547474e-12">
		<stop  offset="0" style="stop-color:#2F5CAC"/>
		<stop  offset="1" style="stop-color:#3B6FCC"/>
	</linearGradient>
	<path class="st0" d="M99.3,0H26c-5.9,0-10.7,4.8-10.7,10.7v88.6c0,2.5-2.1,4.6-4.6,4.6s-4.6-2.1-4.6-4.6V51.6
		c0-1.7-1.4-3.1-3.1-3.1S0,49.9,0,51.6v47.7c0,5.9,4.8,10.7,10.7,10.7h88.6c5.9,0,10.7-4.8,10.7-10.7V10.7C110,4.8,105.2,0,99.3,0z
		 M103.9,99.3c0,2.5-2.1,4.6-4.6,4.6H20.4c0.7-1.4,1-2.9,1-4.6V10.7c0-2.5,2.1-4.6,4.6-4.6h73.3c2.5,0,4.6,2.1,4.6,4.6L103.9,99.3
		L103.9,99.3z"/>
	<linearGradient id="SVGID_2_" gradientUnits="userSpaceOnUse" x1="62.8061" y1="110" x2="62.8061" y2="-6.109415e-02">
		<stop  offset="0" style="stop-color:#2F5CAC"/>
		<stop  offset="1" style="stop-color:#3B6FCC"/>
	</linearGradient>
	<path class="st1" d="M94.7,15.3H30.9c-1.7,0-3.1,1.4-3.1,3.1c0,1.7,1.4,3.1,3.1,3.1h63.9c1.7,0,3.1-1.4,3.1-3.1
		C97.8,16.7,96.4,15.3,94.7,15.3z"/>
	<linearGradient id="SVGID_3_" gradientUnits="userSpaceOnUse" x1="62.8061" y1="110" x2="62.8061" y2="-6.109415e-02">
		<stop  offset="0" style="stop-color:#2F5CAC"/>
		<stop  offset="1" style="stop-color:#3B6FCC"/>
	</linearGradient>
	<path class="st2" d="M94.7,30.6H30.9c-1.7,0-3.1,1.4-3.1,3.1c0,1.7,1.4,3.1,3.1,3.1h63.9c1.7,0,3.1-1.4,3.1-3.1
		C97.8,31.9,96.4,30.6,94.7,30.6z"/>
	<linearGradient id="SVGID_4_" gradientUnits="userSpaceOnUse" x1="42.2894" y1="110" x2="42.2894" y2="-6.109415e-02">
		<stop  offset="0" style="stop-color:#2F5CAC"/>
		<stop  offset="1" style="stop-color:#3B6FCC"/>
	</linearGradient>
	<path class="st3" d="M30.9,51.9h22.8c1.7,0,3.1-1.4,3.1-3.1c0-1.7-1.4-3.1-3.1-3.1H30.9c-1.7,0-3.1,1.4-3.1,3.1
		S29.2,51.9,30.9,51.9z"/>
	<linearGradient id="SVGID_5_" gradientUnits="userSpaceOnUse" x1="42.2894" y1="110" x2="42.2894" y2="-6.109415e-02">
		<stop  offset="0" style="stop-color:#2F5CAC"/>
		<stop  offset="1" style="stop-color:#3B6FCC"/>
	</linearGradient>
	<path class="st4" d="M30.9,67.2h22.8c1.7,0,3.1-1.4,3.1-3.1c0-1.7-1.4-3.1-3.1-3.1H30.9c-1.7,0-3.1,1.4-3.1,3.1
		S29.2,67.2,30.9,67.2z"/>
	<linearGradient id="SVGID_6_" gradientUnits="userSpaceOnUse" x1="44.1732" y1="110" x2="44.1732" y2="-6.109415e-02">
		<stop  offset="0" style="stop-color:#2F5CAC"/>
		<stop  offset="1" style="stop-color:#3B6FCC"/>
	</linearGradient>
	<path class="st5" d="M57.5,76.4H30.9c-1.7,0-3.1,1.4-3.1,3.1s1.4,3.1,3.1,3.1h26.6c1.7,0,3.1-1.4,3.1-3.1S59.2,76.4,57.5,76.4z"/>
	<linearGradient id="SVGID_7_" gradientUnits="userSpaceOnUse" x1="44.1734" y1="110" x2="44.1734" y2="-6.109415e-02">
		<stop  offset="0" style="stop-color:#2F5CAC"/>
		<stop  offset="1" style="stop-color:#3B6FCC"/>
	</linearGradient>
	<path class="st6" d="M57.5,91.7H30.9c-1.7,0-3.1,1.4-3.1,3.1c0,1.7,1.4,3.1,3.1,3.1h26.6c1.7,0,3.1-1.4,3.1-3.1
		C60.6,93,59.2,91.7,57.5,91.7z"/>
	<linearGradient id="SVGID_8_" gradientUnits="userSpaceOnUse" x1="79.0355" y1="110" x2="79.0355" y2="-6.109415e-02">
		<stop  offset="0" style="stop-color:#2F5CAC"/>
		<stop  offset="1" style="stop-color:#3B6FCC"/>
	</linearGradient>
	<path class="st7" d="M79.1,41.9c-10.3,0-18.7,8.4-18.7,18.7c0,6,2.9,11.3,7.3,14.8v21.5c0.2,2.9,3.1,3.7,4.9,2.4l6.5-4.9l6.5,4.9
		c2.1,1.7,5.1-0.4,4.9-2.4V75.4c4.4-3.4,7.3-8.8,7.3-14.8C97.8,50.3,89.4,41.9,79.1,41.9z M84.4,90.8l-3.5-2.6
		c-1.1-0.8-2.6-0.8-3.7,0l-3.5,2.6V78.6c1.7,0.5,3.5,0.8,5.3,0.8c1.9,0,3.6-0.3,5.3-0.8V90.8z M79.1,73.2c-7,0-12.6-5.7-12.6-12.6
		S72.1,48,79.1,48c7,0,12.6,5.7,12.6,12.6S86,73.2,79.1,73.2z"/>
</g>
</svg>
