<?xml version="1.0" encoding="utf-8"?>
<!-- Generator: Adobe Illustrator 22.0.1, SVG Export Plug-In . SVG Version: 6.00 Build 0)  -->
<svg version="1.1" id="Capa_1" xmlns="http://www.w3.org/2000/svg" xmlns:xlink="http://www.w3.org/1999/xlink" x="0px" y="0px"
	 viewBox="0 0 110 110" style="enable-background:new 0 0 110 110;" xml:space="preserve">
<style type="text/css">
	.st0{fill:url(#SVGID_1_);}
	.st1{fill:url(#SVGID_2_);}
	.st2{fill:url(#SVGID_3_);}
</style>
<g>
	<linearGradient id="SVGID_1_" gradientUnits="userSpaceOnUse" x1="17.6404" y1="109.4682" x2="17.6404" y2="-1.7498">
		<stop  offset="0" style="stop-color:#2F5CAC"/>
		<stop  offset="1" style="stop-color:#3B6FCC"/>
	</linearGradient>
	<path class="st0" d="M21.1,37.4h-6.8c-1.7,0-3.1,1.5-3.1,3.2c0,1.8,1.4,3.2,3.1,3.2h6.8c1.7,0,3.1-1.5,3.1-3.2
		C24.1,38.8,22.8,37.4,21.1,37.4z"/>
	<linearGradient id="SVGID_2_" gradientUnits="userSpaceOnUse" x1="17.6404" y1="109.4682" x2="17.6404" y2="-1.7498">
		<stop  offset="0" style="stop-color:#2F5CAC"/>
		<stop  offset="1" style="stop-color:#3B6FCC"/>
	</linearGradient>
	<path class="st1" d="M21.1,48.4h-6.8c-1.7,0-3.1,1.5-3.1,3.2c0,1.8,1.4,3.2,3.1,3.2h6.8c1.7,0,3.1-1.5,3.1-3.2
		C24.1,49.9,22.8,48.4,21.1,48.4z"/>
	<linearGradient id="SVGID_3_" gradientUnits="userSpaceOnUse" x1="55" y1="109.4682" x2="55" y2="-1.7498">
		<stop  offset="0" style="stop-color:#2F5CAC"/>
		<stop  offset="1" style="stop-color:#3B6FCC"/>
	</linearGradient>
	<path class="st2" d="M95.2,27.4V9.3c0-6.2-5.7-11.4-12.6-8.5L31.6,26.3H9.2c-5,0-9.2,4.4-9.2,9.7v20.3C0,61.7,4.1,66,9.2,66h1.5
		c-0.3,5.2-1.7,26.1-2,34.2c-0.2,4.3,3,9.7,8.8,9.7h12.9c5.1-0.1,9-4,8.8-10c-0.2-3.3-0.5-6.2-0.8-8.9h1.2c1.7,0,3.1-1.5,3.1-3.2
		s-1.4-3.2-3.1-3.2h-2c-0.2-1.7-1.9-12.5-2.4-16.7l47.4,23.6c6.4,2.9,12.8-2.2,12.6-8.5V64.9c8.4-1.6,14.8-9.4,14.8-18.8
		S103.6,28.9,95.2,27.4z M9.2,59.5c-1.7,0-3.1-1.5-3.1-3.2V36c0-1.8,1.4-3.2,3.1-3.2h20v26.8H9.2z M30.4,103.5H17.5
		c-1.6-0.2-2.6-1.1-2.7-3c0.3-8,1.8-29.1,2-34.5h12.1c0.6,5.5,3.8,26.5,4.2,34.4C33.1,102.2,32.2,103.4,30.4,103.5z M89.1,83
		c0.1,1.8-1.7,3.6-3.9,2.6L35.3,60.7V31.6L56,21.3v4.3c0,1.8,1.4,3.2,3.1,3.2c1.7,0,3.1-1.5,3.1-3.2v-7.4l3.8-1.9v14
		c0,1.8,1.4,3.2,3.1,3.2s3.1-1.5,3.1-3.2v-17l13.3-6.6C87.1,6,89,7,89.1,9.3V83z M95.2,58.3V34c5,1.5,8.7,6.3,8.7,12.1
		S100.2,56.8,95.2,58.3z"/>
</g>
</svg>
