<?xml version="1.0" encoding="utf-8"?>
<!-- Generator: Adobe Illustrator 22.0.1, SVG Export Plug-In . SVG Version: 6.00 Build 0)  -->
<svg version="1.1" id="Capa_1" xmlns="http://www.w3.org/2000/svg" xmlns:xlink="http://www.w3.org/1999/xlink" x="0px" y="0px"
	 viewBox="0 0 110 94" style="enable-background:new 0 0 110 94;" xml:space="preserve">
<style type="text/css">
	.st0{fill:#FFFFFF;}
</style>
<g>
	<g>
		<g>
			<path class="st0" d="M78.6,65.8h0.3l0.5,1.6l2.1-0.9L81,64.9l0.5-0.4c0.3-0.2,0.7-0.4,0.9-0.7c1.9-1.6,2.6-3.5,2.1-5.6
				c-0.7-2.6-2.1-4.2-4.4-4.6c-0.9-0.2-1.7-0.2-2.4-0.2c-0.5,0-0.9,0-1.2,0c-0.3,0-0.5,0-0.9,0c-0.7,0-1.4-0.2-2.1-0.2
				c-1-0.2-1.9-1.2-1.9-2.6c0-1.1,0.5-1.8,1.7-2.3s2.3-0.2,3,0.7c0.2,0.4,0.3,0.5,0.5,0.9l0,0c0,0.2,0.2,0.2,0.2,0.4l3.8-1.4
				c-0.3-1.1-1-2.3-1.9-3c-1.4-1.1-3-1.4-5.2-1.1h-0.3L72.7,43l-2.1,0.9l0.7,1.6l-0.2,0.3c-0.2,0.2-0.3,0.4-0.5,0.5
				c-0.5,0.4-1,0.9-1.4,1.2c-1.4,1.4-1.7,3.5-1.2,5.4s2.1,3.3,3.8,3.9c0.9,0.2,1.9,0.4,3,0.4c0.5,0,0.9,0,1.4,0c0.2,0,0.5,0,0.7,0
				h0.2c0.7,0,1.2,0,1.7,0.2c1,0.2,1.9,1.2,2.1,2.6c0,1.1-0.5,1.9-1.7,2.5c-0.3,0.2-0.5,0.2-0.9,0.4c-1.4,0.5-2.8-0.2-3.5-1.4
				l-0.2-0.2l-0.2-0.9l-3.7,1.4C71.6,65.1,74.2,66.3,78.6,65.8z"/>
			<polygon class="st0" points="62.5,37.1 83.4,29.1 84.9,32.9 64,40.8 			"/>
			<polygon class="st0" points="72.2,23.1 80,20 81.5,23.8 73.7,26.8 			"/>
		</g>
		<g>
			<path class="st0" d="M37.5,33.2c2.3-3.3,4.5-6.7,6.8-10.2l-4.7,1.9c-2.8,1.1-4.4,4.4-3.1,7.2l0.7,1.8L37.5,33.2z"/>
			<path class="st0" d="M82.1,8.3l-7,2.6c-0.3,0.7-0.7,1.4-1,2.1c-0.9,1.6-1.6,3.2-2.4,4.6l12.2-4.7c0.3-0.2,0.7,0,0.9,0.4l20,51.5
				c-1-0.5-2.1-0.9-3.1-1.4l-1.6-0.7c-1.2-0.5-2.8,0-3.5,1.2c-0.2,0.4-0.5,1.1-0.9,1.9c-0.5,1.2-1,2.6-1.6,3.5l-0.2,0.2
				c-1.6-0.7-3.3-1.4-4.9-2.1c-1.4-0.7-3.1,0-3.7,1.4c-0.3,1.1-1.6,3.7-2.3,5.3c-1.3-0.7-4.1-2-5.1-2.3c-1.4-0.5-3.1,0-3.7,1.4
				c-0.7,1.6-1.4,3.3-2.1,4.9l-0.2,0.2c-0.9-0.4-2.3-1.1-3.5-1.6c-0.9-0.4-1.6-0.7-1.9-0.9c-1.2-0.5-2.8,0-3.3,1.4l-0.7,1.6
				c-0.5,1.1-0.9,2.1-1.4,3.2l-10-25.5c-1,1.9-1.9,3.9-3,5.8l8.8,22.6c0,0.2,0.2,0.4,0.2,0.5c0.5,1.2,1.7,2.1,3,2.5
				c1.2,0.4,2.6-0.2,3.7-1.1c0.7-0.7,1-1.4,1.4-1.9c0.5-1.1,1-2.3,1.6-3.5c1.2,0.5,2.8,1.2,3.7,1.6c2.3,0.9,4.5,0.2,5.8-2.1
				c0.2-0.2,0.2-0.5,0.3-0.7V80c0.3-1.1,0.9-1.9,1.2-3c1.2,0.5,2.6,1.1,3.5,1.6c1.4,0.5,2.6,0.7,3.7,0.2c1-0.4,1.9-1.2,2.4-2.6
				c0.3-0.9,1-2.3,1.6-3.5c1,0.5,1.9,0.9,3,1.2l0.2,0.2c0.2,0.2,0.5,0.2,0.7,0.4c2.3,0.9,4.5,0,5.6-2.3c0.3-0.9,1-2.5,1.6-3.7
				c1.2,0.5,2.3,1.1,3.5,1.6c0.5,0.2,1.2,0.5,2.3,0.5c1.4,0,2.6-0.7,3.3-1.8c0.9-1.1,1-2.5,0.7-3.9c0-0.2-0.2-0.4-0.2-0.5l-20.4-53
				C88,8.6,84.9,7.2,82.1,8.3z"/>
		</g>
	</g>
	<g>
		<path class="st0" d="M74.9,0.9c-0.2-0.4-0.3-0.5-0.5-0.7C74.2,0,73.9,0,73.7,0c-0.3,0-0.7,0-1,0.2l-0.5,0.4
			c-3,1.8-5.9,3.7-9.1,5.6c-0.2,0.2-0.5,0.4-0.7,0.7c-0.5,0.4-0.9,0.7-1.4,1.2c-2.1,1.9-3.8,4-5.4,6.5c-1.6,2.5-3.3,4.9-4.9,7.4
			c-3.1,4.6-6.1,9.1-9.3,13.7c-0.3,0.5-0.7,1.2-1.2,1.8c-1.7,2.5-3.5,5.3-5.4,8.1c-2.1,3-3,6.3-3,10c0,2.5-0.3,4.9-0.7,7
			c-0.3,1.8-1.2,2.6-3.1,3.2c-4.5,1.1-8,4-10,8.3c-1.9,4.2-1.6,9,0.7,13v0.2c2.1,3.5,5.4,6,9.4,6.8c3.4,0.2,7.5-0.7,10.8-3.2
			c5.9-4.4,7.5-12.5,3.8-18.8c-0.3-0.5-0.5-1.1-0.9-1.4c-1-1.6-1.2-2.8-0.3-4.6c5.6-10.5,10.3-19.5,14.9-28.3
			c4.2-8.3,8.7-16.9,14-26.7c1.4-2.6,2.8-5.4,4.2-8.1c0.1,0,0.1-0.2,0.3-0.5C75.1,2,75.1,1.4,74.9,0.9z M35,87.2
			c-2.1,1.1-4.5,1.4-7,0.9c-2.3-0.7-4.2-2.1-5.4-4.2c-2.4-4.4-1-9.8,3.3-12.5s9.8-1.1,12.4,3.3C40.7,79.1,39.3,84.5,35,87.2z
			 M42.2,56.2c-2.1,1.4-4.9,0.7-6.1-1.6c-1.2-2.1-0.5-4.9,1.6-6.1c2.1-1.2,4.9-0.5,6.1,1.6C45,52.2,44.3,55,42.2,56.2z"/>
		<path class="st0" d="M31.4,40.2c-1.7-0.7-2.6-1.8-2.8-3.5c0-0.5-0.2-1.2-0.3-1.8c-1.6-7.2-8.2-11.9-15.6-11.1
			c-4,0.5-7.7,2.6-10.1,6c-2.3,3.3-3.1,7.4-2.3,11.4v0.2c1,4.6,4,8.1,8.2,10s8.9,1.6,12.9-0.7c1.7-1.1,3.1-1.1,4.4,0.2
			c0.5,0.5,1.2,1.1,1.9,1.6c0.7-3.7,1.7-6.5,3.7-9.3c0.5-0.9,1-1.6,1.6-2.5C32.5,40.5,32,40.3,31.4,40.2z M16.5,46.9
			c-5.1,1.2-9.8-1.9-10.8-6.8c-0.5-2.5-0.2-4.7,1.2-6.8c1.2-2.1,3.3-3.5,5.6-4c4.9-1.1,9.8,1.9,10.8,6.8
			C24.4,41.1,21.4,45.8,16.5,46.9z"/>
	</g>
</g>
</svg>
