<?xml version="1.0" encoding="utf-8"?>
<!-- Generator: Adobe Illustrator 22.0.1, SVG Export Plug-In . SVG Version: 6.00 Build 0)  -->
<svg version="1.1" id="Capa_1" xmlns="http://www.w3.org/2000/svg" xmlns:xlink="http://www.w3.org/1999/xlink" x="0px" y="0px"
	 viewBox="0 0 110 110" style="enable-background:new 0 0 110 110;" xml:space="preserve">
<style type="text/css">
	.st0{fill:#FFFFFF;}
</style>
<g>
	<path class="st0" d="M26.4,70.4C35.6,70.4,43,63,43,53.8s-7.4-16.6-16.6-16.6S9.8,44.7,9.8,53.8S17.3,70.4,26.4,70.4z M26.4,43.4
		c5.8,0,10.5,4.7,10.5,10.5s-4.7,10.5-10.5,10.5s-10.5-4.7-10.5-10.5C16,48,20.7,43.4,26.4,43.4z"/>
	<path class="st0" d="M35.8,75.4c-1.1,0-2.1,0.6-2.7,1.6l-6.7,12.4L19.7,77c-0.5-1-1.6-1.6-2.7-1.6c-9.4,0-17,7.6-17,17V107
		c0,1.7,1.4,3.1,3.1,3.1h46.8c1.7,0,3.1-1.4,3.1-3.1V92.4C52.9,83,45.2,75.4,35.8,75.4z M46.8,103.9H6.1V92.4c0-5.4,4-9.9,9.2-10.8
		l8.5,15.6c1.2,1.9,4,2.3,5.4,0l8.5-15.6c5.2,0.8,9.2,5.3,9.2,10.8L46.8,103.9L46.8,103.9z"/>
	<path class="st0" d="M69.9,15.3c-0.7,1.5,0,3.4,1.6,4c1.5,0.7,3.4,0,4-1.6c1.4-2.7,4.8-2,5.5,0.5c0.4,1.6-0.5,2.8-1.5,3.3
		c-4.5,2.4-4.3,7.9-4.3,7.9c0,1.7,1.4,3.1,3.1,3.1s3.1-1.4,3.1-3.1c0,0-0.2-1.8,0.9-2.4c3.7-1.9,5.8-6,4.8-10.2
		C84.9,8.7,73.9,7.1,69.9,15.3z"/>
	<path class="st0" d="M78.1,35.1c-1.7,0-3.1,1.4-3.1,3.1v2.1c0,1.7,1.4,3.1,3.1,3.1s3.1-1.4,3.1-3.1v-2.1
		C81.2,36.5,79.8,35.1,78.1,35.1z"/>
	<path class="st0" d="M78.4,0C60.9,0,46.7,11.9,46.7,26.6c0,6.8,3,13.2,8.5,18.2l-2,14.4c-0.4,2.3,2.1,4.5,4.6,3L73,52.8
		c1.8,0.3,3.6,0.4,5.3,0.4c17.4,0,31.6-11.9,31.6-26.6S95.8,0,78.4,0z M78.4,47.1c-1.8,0-3.7,0-5.5-0.5c-1.9-0.5-12.7,7-12.7,7
		l1.3-9.6c0.2-1.1-0.3-2.1-1.1-2.8c-4.9-3.9-7.6-9.1-7.6-14.6c0-11.3,11.5-20.5,25.5-20.5s25.5,9.2,25.5,20.5
		C103.9,37.9,92.4,47.1,78.4,47.1z"/>
</g>
</svg>
