<?xml version="1.0" encoding="utf-8"?>
<!-- Generator: Adobe Illustrator 22.0.1, SVG Export Plug-In . SVG Version: 6.00 Build 0)  -->
<svg version="1.1" id="Capa_1" xmlns="http://www.w3.org/2000/svg" xmlns:xlink="http://www.w3.org/1999/xlink" x="0px" y="0px"
	 viewBox="0 0 110 110" style="enable-background:new 0 0 110 110;" xml:space="preserve">
<style type="text/css">
	.st0{fill:#FFFFFF;}
</style>
<g>
	<path class="st0" d="M96,0H37.9C30.2,0,24,6.3,24,14.1v18.5H12.3C5.5,32.7,0,38.2,0,45.1v36.3c0,6.9,5.5,12.4,12.3,12.4h4.4v13.3
		c0,1.6,1.3,2.9,2.8,2.9c0.8,0,1.5-0.3,2-0.9l15.1-15.3h14.1c6.8,0,12.3-5.5,12.3-12.4l0,0v-7.6h3.4L84.2,92c1.1,1.1,2.9,1.1,4,0
		c0.5-0.5,0.8-1.3,0.8-2.1V73.7h7c7.7,0,13.9-6.3,14-14.1V14.1C110,6.3,103.8,0,96,0C96.1,0,96,0,96,0z M57.3,81.4
		c0,3.7-2.9,6.7-6.6,6.7H35.4c-0.8,0-1.5,0.3-2,0.8l-11.1,11.3v-9.3c0-1.6-1.3-2.9-2.8-2.9h-7.2c-3.6,0-6.6-3-6.6-6.7l0,0V45.1
		c0-3.7,2.9-6.7,6.6-6.7H24v21.2c0,7.8,6.2,14.1,13.9,14.1h19.4C57.3,73.7,57.3,81.4,57.3,81.4z M104.3,59.6c0,4.6-3.7,8.3-8.2,8.3
		l0,0h-9.8c-1.6,0-2.8,1.3-2.8,2.9v12.1l-14-14.1c-0.5-0.5-1.3-0.8-2-0.8H37.9c-4.5,0-8.2-3.7-8.2-8.3V14.1c0-4.6,3.7-8.3,8.2-8.3
		H96c4.5,0,8.2,3.7,8.2,8.3L104.3,59.6z"/>
</g>
</svg>
