<?xml version="1.0" encoding="utf-8"?>
<!-- Generator: Adobe Illustrator 22.0.1, SVG Export Plug-In . SVG Version: 6.00 Build 0)  -->
<svg version="1.1" id="Capa_1" xmlns="http://www.w3.org/2000/svg" xmlns:xlink="http://www.w3.org/1999/xlink" x="0px" y="0px"
	 viewBox="0 0 110 110" style="enable-background:new 0 0 110 110;" xml:space="preserve">
<style type="text/css">
	.st0{fill:#FFFFFF;}
</style>
<g>
	<path class="st0" d="M108.7,23.8c-1.4-1-3.3-0.6-4.2,0.8c-11.1,16-8.3,38-6.6,46.9H64.6c-1.7,0-3.1,1.4-3.1,3.1s1.4,3.1,3.1,3.1h3
		V107c0,1.7,1.4,3.1,3.1,3.1s3.1-1.4,3.1-3.1V93.7h18.8v13.1c0,1.7,1.4,3.1,3.1,3.1s3.1-1.4,3.1-3.1V77.5h3c2.2-0.2,3.4-1.9,2.9-3.9
		c-0.1-0.3-7.4-28,4.9-45.7C110.4,26.7,110.1,24.8,108.7,23.8z M92.5,87.6H73.8V77.5h18.8v10.1H92.5z"/>
	<path class="st0" d="M55,43.1c11.9,0,21.6-9.7,21.6-21.6S66.9,0,55,0S33.4,9.7,33.4,21.6S43.1,43.1,55,43.1z M55,6.1
		c8.5,0,15.5,6.9,15.5,15.5c0,8.5-7,15.4-15.5,15.4s-15.5-6.9-15.5-15.5S46.5,6.1,55,6.1z"/>
	<path class="st0" d="M48.8,24.6H55c1.7,0,3.1-1.4,3.1-3.1v-9.2c0-1.7-1.4-3.1-3.1-3.1s-3.1,1.4-3.1,3.1v6.2h-3.1
		c-1.7,0-3.1,1.4-3.1,3.1C45.7,23.3,47.1,24.6,48.8,24.6z"/>
	<path class="st0" d="M56.3,52.9L3.7,42.5c-1.6-0.3-3.3,0.7-3.6,2.4c-0.3,1.6,0.7,3.3,2.4,3.6l4.1,0.8v57.6c0,1.7,1.4,3.1,3.1,3.1
		s3.1-1.4,3.1-3.1v-9.4h4.6c1.7,0,3.1-1.4,3.1-3.1s-1.4-3.1-3.1-3.1h-4.6v-4.8h9.6c1.7,0,3.1-1.4,3.1-3.1s-1.4-3.1-3.1-3.1h-9.6
		v-8.4h33.4v34.9c0,1.7,1.4,3.1,3.1,3.1c1.7,0,3.1-1.4,3.1-3.1V58.2c0,0,3.3,0.6,3.5,0.6c1.4,0,2.7-1,3-2.5
		C59.1,54.9,58,53.3,56.3,52.9z M46.1,65.8H12.7V50.5L46.1,57V65.8z"/>
</g>
</svg>
