<?xml version="1.0" encoding="utf-8"?>
<!-- Generator: Adobe Illustrator 22.0.1, SVG Export Plug-In . SVG Version: 6.00 Build 0)  -->
<svg version="1.1" id="Capa_1" xmlns="http://www.w3.org/2000/svg" xmlns:xlink="http://www.w3.org/1999/xlink" x="0px" y="0px"
	 viewBox="0 0 110 110" style="enable-background:new 0 0 110 110;" xml:space="preserve">
<style type="text/css">
	.st0{fill:#FFFFFF;}
</style>
<g>
	<path class="st0" d="M69.4,53.9c7.4,0,13.3-6,13.3-13.3s-6-13.3-13.3-13.3c-7.4,0-13.3,6-13.3,13.3C56.2,47.9,62.1,53.9,69.4,53.9z
		 M69.4,33.4c3.9,0,7.1,3.2,7.1,7.1s-3.2,7.1-7.1,7.1s-7.1-3.2-7.1-7.1S65.5,33.4,69.4,33.4z"/>
	<path class="st0" d="M106.4,0C81.6,4.4,59,16.2,41.2,34.1l-8.5,8.5c-9.2-7.2-22.8-6.9-31.8,2c-1.2,1.2-1.2,3.1,0,4.3l60.2,60.2
		c1.3,1.1,3.1,1.2,4.3,0c8.7-8.7,9.3-22.3,2-31.8l8.5-8.5C93.8,51,105.5,28.4,110,3.7C110.3,1.8,108.9-0.3,106.4,0z M7.6,46.9
		c6.4-4.4,14.8-4.5,20.8,0L18,57.3L7.6,46.9z M63.1,102.4L52.7,92.1l10.4-10.4C67.5,87.9,67.5,96.2,63.1,102.4z M71.6,64.5
		L48.4,87.7L22.3,61.6l7.1-7.1l3.8,3.8c1.5,1.3,3.2,1.1,4.3,0c1.2-1.2,1.2-3.1,0-4.3l-3.8-3.8l3.7-3.7l8.9,8.9
		c1.3,1.2,3.1,1.2,4.3,0s1.2-3.1,0-4.3l-8.9-8.9l3.8-3.8c15.9-15.9,35.7-26.7,57.6-31.5C98.3,28.8,87.5,48.6,71.6,64.5z"/>
	<path class="st0" d="M12.5,83c-3,3-7.7,15.9-9.1,19.7c-0.8,2,1,4.8,3.9,3.9c3.9-1.4,16.7-6.1,19.7-9.1c4-4,4-10.5,0-14.5
		C22.7,78.8,16.4,79.2,12.5,83z M22.7,93.1c-1,1-5.9,3.2-11.2,5.3c2.1-5.3,4.3-10.2,5.3-11.2c1.8-1.6,4-1.6,5.8,0
		C24.3,88.9,24.3,91.5,22.7,93.1z"/>
</g>
</svg>
