<svg id="Capa_1" data-name="Capa 1" xmlns="http://www.w3.org/2000/svg" viewBox="0 0 62.33 60.89"><title>iconoColaboraHomologaciónEuropea</title><path d="M39.92,32,36,36l-1.54-1.53a.86.86,0,0,0-1.22,1.22l2.14,2.14a.91.91,0,0,0,.61.26.87.87,0,0,0,.61-.26l4.56-4.55a.88.88,0,0,0,0-1.22A.86.86,0,0,0,39.92,32Z"/><path d="M44.9,17.71H17.43a.87.87,0,0,0,0,1.73H44.9a.87.87,0,0,0,0-1.73Z"/><path d="M44.9,22.46H17.43a.86.86,0,0,0,0,1.72H44.9a.86.86,0,0,0,0-1.72Z"/><path d="M26.78,27.2H17.43a.87.87,0,0,0,0,1.73h9.35a.87.87,0,0,0,0-1.73Z"/><path d="M50.07,12.1H12.25a2.6,2.6,0,0,0-2.59,2.59V37.27a2.59,2.59,0,0,0,2.59,2.59H30.11a8.72,8.72,0,0,0,1.31,1.47l-2.65,8.94a.86.86,0,0,0,.32.95.87.87,0,0,0,1,0l2.2-1.57.87,2.56a.87.87,0,0,0,.82.59h0a.88.88,0,0,0,.81-.62l2.36-8,2.36,8a.88.88,0,0,0,.81.62h0a.87.87,0,0,0,.82-.59l.87-2.56,2.2,1.57a.86.86,0,0,0,.51.16h0a.86.86,0,0,0,.87-.86.91.91,0,0,0-.1-.4l-2.61-8.78a8.72,8.72,0,0,0,1.31-1.47h5.82a2.59,2.59,0,0,0,2.59-2.59V14.69A2.6,2.6,0,0,0,50.07,12.1ZM41.39,40.39a7.07,7.07,0,0,1-1.76,1l0,0a7.13,7.13,0,0,1-2,.42h0l-.39,0-.39,0h0a7.2,7.2,0,0,1-2-.42l0,0a7.07,7.07,0,0,1-1.76-1,6.9,6.9,0,1,1,8.42,0Zm-7.46,8.69L33.56,48a.87.87,0,0,0-1.32-.42l-1.1.79,1.76-5.94,0,0,.45.24.23.11.49.2.2.07a5.22,5.22,0,0,0,.56.18l.11,0,.64.14Zm7.53-6.67,1.77,5.94-1.11-.79A.87.87,0,0,0,40.8,48l-.37,1.1-1.69-5.67c.22,0,.43-.09.64-.15l.12,0,.55-.17.2-.08.49-.2.23-.11.45-.23S41.45,42.42,41.46,42.41Zm9.48-5.14a.86.86,0,0,1-.87.86H45.18a8.53,8.53,0,0,0,.63-3.2,8.63,8.63,0,0,0-17.26,0,8.53,8.53,0,0,0,.63,3.2H12.25a.86.86,0,0,1-.86-.86V14.69a.87.87,0,0,1,.86-.86H50.07a.87.87,0,0,1,.87.86Z"/></svg>