<svg id="Capa_1" data-name="Capa 1" xmlns="http://www.w3.org/2000/svg" viewBox="0 0 299.55 74.6"><title>logoFacebook</title><g id="_Grupo_" data-name="&lt;Grupo&gt;"><path id="_Trazado_" data-name="&lt;Trazado&gt;" d="M32.14,18.77c-3.28,0-4.23,1.46-4.23,4.67v5.32h8.76l-.88,8.62H27.91V63.5H17.4V37.38H10.32V28.76H17.4V23.58c0-8.68,3.5-13.28,13.28-13.28a51.25,51.25,0,0,1,6.13.36v8.11"/><path id="_Trazado_compuesto_" data-name="&lt;Trazado compuesto&gt;" d="M37.4,45c0-9.71,4.59-17,14.23-17,5.25,0,8.46,2.7,10,6.06V28.76H71.7V63.5H61.62V58.25c-1.46,3.35-4.74,6-10,6-9.64,0-14.23-7.3-14.23-17m10.5.14c0,5.18,1.9,8.61,6.79,8.61,4.31,0,6.5-3.14,6.5-8.1v-3.5c0-5-2.19-8.1-6.5-8.1-4.89,0-6.79,3.43-6.79,8.61Z"/><path id="_Trazado_2" data-name="&lt;Trazado&gt;" d="M93.59,28c4.08,0,8,.88,10.06,2.34l-2.33,7.44a16.55,16.55,0,0,0-7-1.6c-5.7,0-8.18,3.28-8.18,8.9v2c0,5.62,2.48,8.9,8.18,8.9a16.55,16.55,0,0,0,7-1.6l2.33,7.44c-2.11,1.46-6,2.34-10.06,2.34-12.34,0-18-6.64-18-17.3v-1.6c0-10.66,5.62-17.3,18-17.3"/><path id="_Trazado_compuesto_2" data-name="&lt;Trazado compuesto&gt;" d="M105,47.45V44.38C105,34.53,110.66,28,122.12,28c10.8,0,15.54,6.57,15.54,16.21v5.54H115.55c.22,4.75,2.34,6.86,8.18,6.86a29.9,29.9,0,0,0,11.16-2.11l1.9,7.22c-2.77,1.46-8.47,2.55-13.5,2.55C110,64.3,105,57.66,105,47.45m10.51-4.53h12.7v-.87c0-3.8-1.53-6.79-6.13-6.79-4.75,0-6.57,3-6.57,7.66"/><path id="_Trazado_compuesto_3" data-name="&lt;Trazado compuesto&gt;" d="M176.63,47.22c0,9.71-4.67,17-14.3,17-5.26,0-8.9-2.63-10.36-6V63.5H142V11.32l10.51-1V33.58c1.53-3.07,4.89-5.55,9.78-5.55,9.63,0,14.3,7.3,14.3,17m-10.51-.21c0-4.9-1.9-8.54-6.93-8.54-4.31,0-6.64,3.06-6.64,8V48c0,5,2.33,8,6.64,8,5,0,6.93-3.65,6.93-8.54Z"/><path id="_Trazado_compuesto_4" data-name="&lt;Trazado compuesto&gt;" d="M180.13,47V45.26c0-10,5.69-17.23,17.3-17.23s17.29,7.23,17.29,17.23V47c0,10-5.69,17.22-17.29,17.22S180.13,57,180.13,47m24.09-2.48c0-4.6-1.9-8.25-6.79-8.25s-6.79,3.65-6.79,8.25v3.21c0,4.59,1.9,8.24,6.79,8.24s6.79-3.65,6.79-8.24Z"/><path id="_Trazado_compuesto_5" data-name="&lt;Trazado compuesto&gt;" d="M218.22,47V45.26c0-10,5.69-17.23,17.3-17.23s17.3,7.23,17.3,17.23V47c0,10-5.7,17.22-17.3,17.22S218.22,57,218.22,47m24.09-2.48c0-4.6-1.9-8.25-6.79-8.25s-6.79,3.65-6.79,8.25v3.21c0,4.59,1.9,8.24,6.79,8.24s6.79-3.65,6.79-8.24Z"/><polyline id="_Trazado_3" data-name="&lt;Trazado&gt;" points="267.26 45.33 277.62 28.76 288.79 28.76 277.91 45.91 289.23 63.5 278.06 63.5 267.26 46.5 267.26 63.5 256.75 63.5 256.75 11.32 267.26 10.37"/></g></svg>