<svg id="Capa_1" data-name="Capa 1" xmlns="http://www.w3.org/2000/svg" viewBox="0 0 62.33 60.89"><title>iconoColaboraFormacionSolidaria</title><path d="M23.17,32l-5.34.68.24,1.92,5.35-.67a6.44,6.44,0,0,1,4,.8l4.89,2.8h5.85a1.22,1.22,0,0,1,1.22,1.24v.44a1.21,1.21,0,0,1-1.22,1.24h-8.5v1.94h8.5a3.19,3.19,0,0,0,3.17-3.18v-.44a3.19,3.19,0,0,0-3.17-3.19H32.79L28.34,33A8.32,8.32,0,0,0,23.17,32Z"/><path d="M47.8,36.39,40,39.52a1,1,0,0,0-.55,1.27,1,1,0,0,0,1.26.54l7.84-3.14a1.23,1.23,0,0,1,1.57.6,1.21,1.21,0,0,1-.59,1.68L38.61,45.31a13.69,13.69,0,0,1-8.72.82L18.17,43.37a1,1,0,0,0-.47,1.89h0L29.45,48a15.62,15.62,0,0,0,10-.93l10.88-4.84a3.19,3.19,0,0,0,1.55-4.32v0a3.19,3.19,0,0,0-4-1.52Z"/><path d="M11,30.71a1,1,0,0,0-.88,1V47.23a1,1,0,0,0,1,1H18a1,1,0,0,0,1-1h0V31.67a1,1,0,0,0-1-1H11.14A.17.17,0,0,0,11,30.71Zm1.08,1.94H17V46.26H12.12Z"/><path d="M29.14,12.45a5.37,5.37,0,0,0-5.36,5.33,5.82,5.82,0,0,0,1.74,3.9c2.45,2.67,7.26,8,7.26,8a1,1,0,0,0,1.38.08l.06-.06s5.15-5.44,7.67-8.36a5.48,5.48,0,0,0,1.35-3.52,5.36,5.36,0,0,0-5.36-5.32A5.2,5.2,0,0,0,34,14.75a5.25,5.25,0,0,0-.53.81,5.25,5.25,0,0,0-.51-.81,5.2,5.2,0,0,0-3.85-2.29Zm0,1.94A3.85,3.85,0,0,1,31.48,16a11.29,11.29,0,0,1,1.16,1.77,1,1,0,0,0,1.31.43,1,1,0,0,0,.43-.43A11.29,11.29,0,0,1,35.54,16a3.82,3.82,0,0,1,2.34-1.59,3.38,3.38,0,0,1,3.4,3.39A3.43,3.43,0,0,1,40.41,20c-2.21,2.57-6.08,6.65-6.89,7.51-.8-.87-4.34-4.76-6.57-7.18a4,4,0,0,1-1.22-2.58A3.38,3.38,0,0,1,29.14,14.39Z"/></svg>