<svg id="Capa_1" data-name="Capa 1" xmlns="http://www.w3.org/2000/svg" viewBox="0 0 62.33 60.89"><title>iconoColaboraPreciosReducidos</title><path d="M31.43,10.33a3.88,3.88,0,0,0-2.37.88,10.64,10.64,0,0,0-1.63,1.66,9.7,9.7,0,0,1-2.58,2.53,10,10,0,0,1-3.66-.05,10.91,10.91,0,0,0-2.36-.08,3.92,3.92,0,0,0-2.33,1,3.65,3.65,0,0,0-1.05,2.22,9.54,9.54,0,0,0,.07,2.27,8.7,8.7,0,0,1,0,3.5,9.48,9.48,0,0,1-2.65,2.45,10.68,10.68,0,0,0-1.76,1.54,3.55,3.55,0,0,0-.95,2.26,3.49,3.49,0,0,0,.89,2.26,9.93,9.93,0,0,0,1.72,1.53,9.19,9.19,0,0,1,2.59,2.44,8.76,8.76,0,0,1-.1,3.5,10.17,10.17,0,0,0-.12,2.28,3.49,3.49,0,0,0,1,2.21,3.77,3.77,0,0,0,2.3,1,11,11,0,0,0,2.37-.09,9.75,9.75,0,0,1,3.66,0A9,9,0,0,1,27,48a10.36,10.36,0,0,0,1.59,1.66,3.85,3.85,0,0,0,2.34.88,4,4,0,0,0,2.37-.89A10.71,10.71,0,0,0,34.9,48a9.64,9.64,0,0,1,2.58-2.52,10.2,10.2,0,0,1,3.66,0,10.88,10.88,0,0,0,2.36.08,3.92,3.92,0,0,0,2.33-1,3.56,3.56,0,0,0,1-2.21,9,9,0,0,0-.06-2.27,9,9,0,0,1,0-3.51,9.86,9.86,0,0,1,2.66-2.44,10.74,10.74,0,0,0,1.76-1.55,3.59,3.59,0,0,0,.94-2.25,3.47,3.47,0,0,0-.89-2.25,9.93,9.93,0,0,0-1.71-1.54A9.41,9.41,0,0,1,47,24.18a8.81,8.81,0,0,1,.1-3.51,9,9,0,0,0,.12-2.26,3.45,3.45,0,0,0-1-2.22,3.78,3.78,0,0,0-2.31-1,10.9,10.9,0,0,0-2.36.09,9.79,9.79,0,0,1-3.66.06,9.11,9.11,0,0,1-2.52-2.51,10.29,10.29,0,0,0-1.58-1.66A3.79,3.79,0,0,0,31.43,10.33Zm0,2.05a1.57,1.57,0,0,1,1,.42,8.77,8.77,0,0,1,1.26,1.34c.89,1.09,1.78,2.5,3.37,3.13s3.29.25,4.74.09a9.17,9.17,0,0,1,1.89-.09,1.58,1.58,0,0,1,1,.38,1.46,1.46,0,0,1,.39,1,8.62,8.62,0,0,1-.11,1.81c-.19,1.38-.62,3,0,4.53s2.1,2.41,3.24,3.27a8.35,8.35,0,0,1,1.38,1.22,1.45,1.45,0,0,1,.43,1,1.54,1.54,0,0,1-.45,1,10.32,10.32,0,0,1-1.41,1.22c-1.16.87-2.65,1.74-3.33,3.28s-.3,3.15-.15,4.53a8.2,8.2,0,0,1,.06,1.81,1.54,1.54,0,0,1-.41,1,1.67,1.67,0,0,1-1,.38,9.74,9.74,0,0,1-1.88-.08c-1.44-.16-3.13-.54-4.74.1s-2.54,2-3.45,3.15a9.32,9.32,0,0,1-1.29,1.34,1.66,1.66,0,0,1-1,.43,1.62,1.62,0,0,1-1-.42,9.29,9.29,0,0,1-1.25-1.34c-.89-1.09-1.78-2.51-3.38-3.14s-3.28-.24-4.73-.08a9.11,9.11,0,0,1-1.89.08,1.58,1.58,0,0,1-1-.38,1.43,1.43,0,0,1-.39-1,8,8,0,0,1,.11-1.81c.19-1.39.61-3,0-4.54s-2.11-2.4-3.25-3.26a9.86,9.86,0,0,1-1.38-1.22,1.41,1.41,0,0,1-.42-1,1.46,1.46,0,0,1,.45-1,9.23,9.23,0,0,1,1.41-1.23c1.15-.86,2.64-1.73,3.33-3.27s.3-3.15.14-4.54a8.75,8.75,0,0,1-.06-1.8,1.52,1.52,0,0,1,.41-1,1.61,1.61,0,0,1,1-.39,9.84,9.84,0,0,1,1.89.08c1.44.16,3.12.55,4.73-.09s2.55-2.06,3.46-3.16a8.69,8.69,0,0,1,1.29-1.33,1.64,1.64,0,0,1,1-.43ZM27,21.17a4.2,4.2,0,1,0,4.2,4.2A4.22,4.22,0,0,0,27,21.17Zm9.76,1.35-12.6,12.6,1.49,1.49L38.21,24ZM27,23.27a2.1,2.1,0,1,1-2.1,2.1A2.07,2.07,0,0,1,27,23.27Zm8.4,6.3a4.2,4.2,0,1,0,4.2,4.2A4.22,4.22,0,0,0,35.36,29.57Zm0,2.1a2.1,2.1,0,1,1-2.1,2.1A2.07,2.07,0,0,1,35.36,31.67Z"/></svg>