<svg id="catnova" xmlns="http://www.w3.org/2000/svg" viewBox="0 0 285.04 49.77"><title>logo_catnova</title><path id="center" d="M47.15,33.13a10,10,0,1,0-10,10h0A10,10,0,0,0,47.15,33.13Z" transform="translate(-12.3 -8.22)"/><g id="petal-b-r"><path id="head" d="M57.15,58a5,5,0,1,0-5-5A5,5,0,0,0,57.15,58Z" transform="translate(-12.3 -8.22)"/><path id="body" d="M50.69,34.62a13.57,13.57,0,0,1-12,12A10.49,10.49,0,0,0,49.1,55.53a8.11,8.11,0,0,0,1,0A7.36,7.36,0,0,1,49.65,53a7.44,7.44,0,0,1,7.46-7.42h0a7.36,7.36,0,0,1,2.45.4,7.79,7.79,0,0,0,0-1A10.48,10.48,0,0,0,50.69,34.62Z" transform="translate(-12.3 -8.22)"/></g><g id="petal-b-l"><path id="head-2" d="M12.32,53a5,5,0,1,0,5-5A5,5,0,0,0,12.32,53Z" transform="translate(-12.3 -8.22)"/><path id="body-2" d="M35.71,46.61a13.57,13.57,0,0,1-12-12A10.54,10.54,0,0,0,14.81,45a6.5,6.5,0,0,0,.05,1,7.3,7.3,0,0,1,2.44-.4A7.44,7.44,0,0,1,24.76,53a7.36,7.36,0,0,1-.4,2.45,7.79,7.79,0,0,0,1,0A10.47,10.47,0,0,0,35.71,46.61Z" transform="translate(-12.3 -8.22)"/></g><g id="petal-t-r"><path id="head-3" d="M62.09,13.22a5,5,0,1,0-5,5A5,5,0,0,0,62.09,13.22Z" transform="translate(-12.3 -8.22)"/><path id="body-3" d="M38.7,19.64a13.58,13.58,0,0,1,12,12,10.49,10.49,0,0,0,8.91-10.41,8.19,8.19,0,0,0,0-1,7.36,7.36,0,0,1-9.92-7s0,0,0-.05a7.3,7.3,0,0,1,.4-2.44,6.25,6.25,0,0,0-1,0A10.48,10.48,0,0,0,38.7,19.64Z" transform="translate(-12.3 -8.22)"/></g><g id="petal-t-l"><path id="head-4" d="M17.3,8.24a5,5,0,1,0,5,5A5,5,0,0,0,17.3,8.24Z" transform="translate(-12.3 -8.22)"/><path id="body-4" d="M23.72,31.63a13.58,13.58,0,0,1,12-12,10.53,10.53,0,0,0-10.37-8.9,6.57,6.57,0,0,0-1,0,7.3,7.3,0,0,1,.4,2.44,7.44,7.44,0,0,1-7.41,7.47h-.05a7.31,7.31,0,0,1-2.44-.41,6.25,6.25,0,0,0-.05,1A10.48,10.48,0,0,0,23.72,31.63Z" transform="translate(-12.3 -8.22)"/></g><path d="M106.27,48.5A15,15,0,0,1,100.15,54a20.76,20.76,0,0,1-9.28,2A18.26,18.26,0,0,1,81,53.34a16.69,16.69,0,0,1-6.37-7.42,27.12,27.12,0,0,1-2.2-11.36V31.8a26.43,26.43,0,0,1,2.28-11.35A17.19,17.19,0,0,1,81.15,13a18,18,0,0,1,9.73-2.61,20.28,20.28,0,0,1,9.34,2,14.8,14.8,0,0,1,6,5.55,18.9,18.9,0,0,1,2.57,8.2h-9.5c-.19-2.68-.92-4.67-2.21-6s-3.36-2-6.22-2a7.39,7.39,0,0,0-6.63,3.29q-2.14,3.27-2.15,10.27v2.77A27.56,27.56,0,0,0,83,42.14a8.38,8.38,0,0,0,2.79,4.42A8.13,8.13,0,0,0,90.83,48q4.11,0,6.13-1.87c1.35-1.24,2.11-3.17,2.3-5.76h9.51A17,17,0,0,1,106.27,48.5Z" transform="translate(-12.3 -8.22)"/><path d="M141.15,51.69a11.9,11.9,0,0,0,1,3.07v.52h-9.21a9.53,9.53,0,0,1-.88-3,10.47,10.47,0,0,1-8.24,3.56,12.49,12.49,0,0,1-5.67-1.28,10.11,10.11,0,0,1-4-3.53A9.08,9.08,0,0,1,112.64,46a9.31,9.31,0,0,1,3.86-8q3.86-2.8,11.37-2.81h3.74V33.32a5,5,0,0,0-1.15-3.54A4.48,4.48,0,0,0,127,28.52a4.91,4.91,0,0,0-3.27,1,3.47,3.47,0,0,0-1.17,2.81h-9.18A8.89,8.89,0,0,1,115.15,27a11.79,11.79,0,0,1,5-3.8,18.45,18.45,0,0,1,7.41-1.4,17.22,17.22,0,0,1,6.9,1.31A10.39,10.39,0,0,1,139.09,27a11.41,11.41,0,0,1,1.7,6.39V47.16A24.89,24.89,0,0,0,141.15,51.69Zm-11.74-3.63a5.56,5.56,0,0,0,2.2-2.07v-5.5h-3.46a7,7,0,0,0-4.75,1.38,4.59,4.59,0,0,0-1.57,3.61A3.2,3.2,0,0,0,122.9,48a4.33,4.33,0,0,0,3,1,7,7,0,0,0,3.49-.93Z" transform="translate(-12.3 -8.22)"/><path d="M164.15,48.13V55a16.18,16.18,0,0,1-5.42.85q-9.66,0-9.67-9.85V29h-4.65V22.38h4.65V14.23h9.19v8.15h5.53v6.69h-5.53V45a3.58,3.58,0,0,0,.76,2.66,3.72,3.72,0,0,0,2.58.72A12.58,12.58,0,0,0,164.15,48.13Z" transform="translate(-12.3 -8.22)"/><path d="M194.28,24.73q2.72,3,2.71,9.69V55.28h-9.18V34.39c0-2-.42-3.3-1.25-4.06a5.58,5.58,0,0,0-3.86-1.14,6.11,6.11,0,0,0-3.12.76,5.84,5.84,0,0,0-2.14,2.16V55.28h-9.19V22.38h8.61l.3,3.8a11.6,11.6,0,0,1,4.14-3.29,12.37,12.37,0,0,1,5.32-1.12C189.92,21.77,192.48,22.76,194.28,24.73Z" transform="translate(-12.3 -8.22)"/><path d="M203.91,29.89a13.89,13.89,0,0,1,5.36-6,17.59,17.59,0,0,1,16.89,0,13.89,13.89,0,0,1,5.39,6,19.64,19.64,0,0,1,1.84,8.63v.64a19.53,19.53,0,0,1-1.84,8.62,14,14,0,0,1-5.37,6,17.59,17.59,0,0,1-16.89,0,13.9,13.9,0,0,1-5.38-6,19.39,19.39,0,0,1-1.84-8.62v-.64A19.5,19.5,0,0,1,203.91,29.89ZM212.8,46a5.38,5.38,0,0,0,5,2.54A5.29,5.29,0,0,0,222.65,46a12.89,12.89,0,0,0,1.55-6.78v-.64a13,13,0,0,0-1.55-6.78,6,6,0,0,0-9.85,0,13.11,13.11,0,0,0-1.55,6.76v.64A13,13,0,0,0,212.8,46Z" transform="translate(-12.3 -8.22)"/><path d="M266,22.38l-11,32.9h-8.9l-11-32.9h9.64l5.86,21.74,5.84-21.74Z" transform="translate(-12.3 -8.22)"/><path d="M296.34,51.69a11.9,11.9,0,0,0,1,3.07v.52h-9.19a9.53,9.53,0,0,1-.88-3A10.47,10.47,0,0,1,279,55.89a12.48,12.48,0,0,1-5.65-1.28,10.11,10.11,0,0,1-4-3.53A9.08,9.08,0,0,1,267.85,46a9.31,9.31,0,0,1,3.86-8q3.85-2.8,11.37-2.81h3.74V33.32a5.09,5.09,0,0,0-1.15-3.54,4.5,4.5,0,0,0-3.47-1.26,4.91,4.91,0,0,0-3.27,1,3.47,3.47,0,0,0-1.17,2.81h-9.19A8.9,8.9,0,0,1,270.32,27a11.79,11.79,0,0,1,5-3.8,18.45,18.45,0,0,1,7.41-1.4,17.22,17.22,0,0,1,6.9,1.31A10.44,10.44,0,0,1,294.3,27a11.41,11.41,0,0,1,1.7,6.39V47.16A24.89,24.89,0,0,0,296.34,51.69ZM284.6,48.06A5.69,5.69,0,0,0,286.82,46v-5.5h-3.5a7,7,0,0,0-4.75,1.38A4.59,4.59,0,0,0,277,45.48,3.2,3.2,0,0,0,278.15,48a4.33,4.33,0,0,0,3,1A7,7,0,0,0,284.6,48.06Z" transform="translate(-12.3 -8.22)"/></svg>